<svg width="26" height="26" viewBox="0 0 26 26" fill="none" xmlns="http://www.w3.org/2000/svg">
<circle cx="13" cy="13" r="12.25" transform="rotate(90 13 13)" stroke="#121212" stroke-width="1.5"/>
<path d="M18.5529 10.5068C18.8328 10.2015 18.8121 9.72703 18.5068 9.44713C18.2015 9.16724 17.727 9.18787 17.4471 9.49321L18.5529 10.5068ZM12.5 16L12.0641 16.6103C12.3725 16.8306 12.7968 16.7862 13.0529 16.5068L12.5 16ZM9.43593 12.8897C9.09887 12.6489 8.63046 12.727 8.3897 13.0641C8.14894 13.4011 8.22701 13.8695 8.56407 14.1103L9.43593 12.8897ZM17.4471 9.49321L11.9471 15.4932L13.0529 16.5068L18.5529 10.5068L17.4471 9.49321ZM12.9359 15.3897L9.43593 12.8897L8.56407 14.1103L12.0641 16.6103L12.9359 15.3897Z" fill="#121212"/>
</svg>
