<svg width="22" height="22" viewBox="0 0 22 22" fill="none" xmlns="http://www.w3.org/2000/svg">
<path d="M22 3.0681V18.9319C22 20.6262 20.6262 22 18.9319 22H12.7974V13.8201H15.4786L15.9882 10.4946H12.7974V8.33672C12.7974 7.42651 13.2423 6.53847 14.6723 6.53847H16.1229V3.70729C16.1229 3.70729 14.807 3.4823 13.5474 3.4823C10.919 3.4823 9.2009 5.07601 9.2009 7.96002V10.4946H6.28109V13.8201H9.2009V22H3.0681C1.37383 22 0 20.6262 0 18.9319V3.0681C0 1.37383 1.37383 0 3.0681 0H18.9319C20.6262 0 22 1.37383 22 3.0681Z" fill="#121212"/>
</svg>
