<svg width="1350" height="93" viewBox="0 0 1350 93" fill="none" xmlns="http://www.w3.org/2000/svg">
<g opacity="0.4">
<mask id="path-1-inside-1_45_2659" fill="white">
<path fill-rule="evenodd" clip-rule="evenodd" d="M447.37 5.59534H391.332V61.2289C391.332 80.2978 406.681 95.7816 425.699 95.9993C406.686 96.2221 391.342 111.704 391.342 130.769L391.342 186.403H447.379C466.409 186.403 481.869 171.117 482.148 152.153C482.428 171.116 497.887 186.403 516.917 186.403H572.955V130.769C572.955 111.718 557.634 96.2453 538.642 95.9993C557.63 95.7484 572.945 80.2777 572.945 61.2298V5.59616H516.908C497.871 5.59616 482.407 20.8943 482.139 39.8677C481.871 20.8939 466.407 5.59534 447.37 5.59534Z"/>
</mask>
<path d="M391.332 5.59534V3.09534H388.832V5.59534H391.332ZM425.699 95.9993L425.728 98.4991L425.727 93.4994L425.699 95.9993ZM391.342 130.769H388.842H391.342ZM391.342 186.403H388.842L388.842 188.903H391.342V186.403ZM482.148 152.153L484.648 152.116L479.648 152.116L482.148 152.153ZM572.955 186.403V188.903H575.455V186.403H572.955ZM538.642 95.9993L538.609 93.4995L538.609 98.4991L538.642 95.9993ZM572.945 5.59616H575.445V3.09616H572.945V5.59616ZM482.139 39.8677L479.639 39.9029L484.639 39.903L482.139 39.8677ZM391.332 8.09534H447.37V3.09534H391.332V8.09534ZM393.832 61.2289V5.59534H388.832V61.2289H393.832ZM425.727 93.4994C408.078 93.2974 393.832 78.9267 393.832 61.2289H388.832C388.832 81.6689 405.285 98.2658 425.67 98.4991L425.727 93.4994ZM425.669 93.4994C405.289 93.7383 388.842 110.333 388.842 130.769H393.842C393.842 113.075 408.083 98.7059 425.728 98.4991L425.669 93.4994ZM388.842 130.769L388.842 186.403H393.842L393.842 130.769H388.842ZM391.342 188.903H447.379V183.903H391.342V188.903ZM447.379 188.903C467.778 188.903 484.348 172.518 484.648 152.19L479.648 152.116C479.389 169.716 465.041 183.903 447.379 183.903V188.903ZM516.917 183.903C499.256 183.903 484.908 169.715 484.648 152.116L479.648 152.19C479.948 172.517 496.519 188.903 516.917 188.903V183.903ZM572.955 183.903H516.917V188.903H572.955V183.903ZM570.455 130.769V186.403H575.455V130.769H570.455ZM538.609 98.4991C556.236 98.7276 570.455 113.088 570.455 130.769H575.455C575.455 110.348 559.033 93.7634 538.674 93.4995L538.609 98.4991ZM570.445 61.2298C570.445 78.9079 556.231 93.2666 538.609 93.4995L538.675 98.4991C559.029 98.23 575.445 81.6472 575.445 61.2298H570.445ZM570.445 5.59616V61.2298H575.445V5.59616H570.445ZM516.908 8.09616H572.945V3.09616H516.908V8.09616ZM484.639 39.903C484.887 22.2945 499.24 8.09616 516.908 8.09616V3.09616C496.502 3.09616 479.926 19.4941 479.639 39.8324L484.639 39.903ZM447.37 8.09534C465.038 8.09534 479.391 22.2941 479.639 39.9029L484.639 39.8324C484.352 19.4938 467.776 3.09534 447.37 3.09534V8.09534Z" fill="#AB87FF" mask="url(#path-1-inside-1_45_2659)"/>
<mask id="path-3-inside-2_45_2659" fill="white">
<path fill-rule="evenodd" clip-rule="evenodd" d="M447.37 5.59583H391.332V61.2294C391.332 80.2983 406.681 95.7821 425.699 95.9998C406.686 96.2226 391.342 111.704 391.342 130.77L391.342 186.404H447.379C466.409 186.404 481.869 171.117 482.148 152.154C482.428 171.117 497.887 186.403 516.917 186.403H572.955V130.769C572.955 111.719 557.634 96.2458 538.642 95.9998C557.63 95.7489 572.945 80.2782 572.945 61.2302V5.59665H516.908C497.871 5.59665 482.407 20.8948 482.139 39.8682C481.871 20.8944 466.407 5.59583 447.37 5.59583Z"/>
</mask>
<path d="M391.332 5.59583V3.09583H388.832V5.59583H391.332ZM425.699 95.9998L425.728 98.4996L425.727 93.4999L425.699 95.9998ZM391.342 130.77H388.842H391.342ZM391.342 186.404H388.842L388.842 188.904H391.342V186.404ZM482.148 152.154L484.648 152.117L479.648 152.117L482.148 152.154ZM572.955 186.403V188.903H575.455V186.403H572.955ZM538.642 95.9998L538.609 93.5L538.609 98.4996L538.642 95.9998ZM572.945 5.59665H575.445V3.09665H572.945V5.59665ZM482.139 39.8682L479.639 39.9034L484.639 39.9035L482.139 39.8682ZM391.332 8.09583H447.37V3.09583H391.332V8.09583ZM393.832 61.2294V5.59583H388.832V61.2294H393.832ZM425.727 93.4999C408.078 93.2979 393.832 78.9271 393.832 61.2294H388.832C388.832 81.6694 405.285 98.2663 425.67 98.4996L425.727 93.4999ZM425.669 93.4999C405.289 93.7388 388.842 110.333 388.842 130.77H393.842C393.842 113.075 408.083 98.7064 425.728 98.4996L425.669 93.4999ZM388.842 130.77L388.842 186.404H393.842L393.842 130.77H388.842ZM391.342 188.904H447.379V183.904H391.342V188.904ZM447.379 188.904C467.778 188.904 484.348 172.518 484.648 152.191L479.648 152.117C479.389 169.716 465.041 183.904 447.379 183.904V188.904ZM516.917 183.903C499.256 183.903 484.908 169.716 484.648 152.117L479.648 152.191C479.948 172.518 496.519 188.903 516.917 188.903V183.903ZM572.955 183.903H516.917V188.903H572.955V183.903ZM570.455 130.769V186.403H575.455V130.769H570.455ZM538.609 98.4996C556.236 98.7281 570.455 113.088 570.455 130.769H575.455C575.455 110.349 559.033 93.7639 538.674 93.5L538.609 98.4996ZM570.445 61.2302C570.445 78.9084 556.231 93.267 538.609 93.5L538.675 98.4996C559.029 98.2305 575.445 81.6477 575.445 61.2302H570.445ZM570.445 5.59665V61.2302H575.445V5.59665H570.445ZM516.908 8.09665H572.945V3.09665H516.908V8.09665ZM484.639 39.9035C484.887 22.295 499.24 8.09665 516.908 8.09665V3.09665C496.502 3.09665 479.926 19.4946 479.639 39.8329L484.639 39.9035ZM447.37 8.09583C465.038 8.09583 479.391 22.2946 479.639 39.9034L484.639 39.8329C484.352 19.4943 467.776 3.09583 447.37 3.09583V8.09583Z" fill="#AB87FF" mask="url(#path-3-inside-2_45_2659)"/>
<mask id="path-5-inside-3_45_2659" fill="white">
<path fill-rule="evenodd" clip-rule="evenodd" d="M409.286 72.5338L385.714 96.0007L409.286 119.468C422.824 132.946 444.731 133.017 458.357 119.679C444.965 133.245 445.037 155.051 458.574 168.527L482.146 191.994L505.718 168.527C519.225 155.08 519.327 133.342 506.024 119.769C519.657 133.013 541.492 132.911 554.999 119.464L578.571 95.9973L554.999 72.5303C541.485 59.0761 519.633 58.9817 506.001 72.2469C519.322 58.6759 519.225 36.9243 505.712 23.4716L482.141 0.00463217L458.569 23.4716C445.055 36.9253 444.96 58.6793 458.283 72.25C444.652 58.9852 422.8 59.0797 409.286 72.5338Z"/>
</mask>
<path d="M385.714 96.0007L383.942 94.2369L382.17 96.0007L383.942 97.7646L385.714 96.0007ZM458.356 119.68L460.143 121.428L456.6 117.901L458.356 119.68ZM458.574 168.527L460.346 166.763L458.574 168.527ZM482.146 191.994L480.374 193.758L482.146 195.522L483.918 193.758L482.146 191.994ZM506.024 119.77L507.774 117.984L504.231 121.512L506.024 119.77ZM554.999 119.464L553.227 117.7L554.999 119.464ZM578.571 95.9973L580.343 97.7611L582.114 95.9973L580.343 94.2334L578.571 95.9973ZM506.001 72.2469L504.209 70.5036L507.753 74.0307L506.001 72.2469ZM505.712 23.4716L503.941 25.2354L505.712 23.4716ZM482.141 0.00463217L483.912 -1.75919L482.141 -3.52301L480.369 -1.75919L482.141 0.00463217ZM458.569 23.4716L460.34 25.2354L458.569 23.4716ZM458.283 72.25L456.532 74.0338L460.075 70.5065L458.283 72.25ZM387.486 97.7646L411.057 74.2976L407.514 70.7699L383.942 94.2369L387.486 97.7646ZM411.057 117.704L387.486 94.2369L383.942 97.7646L407.514 121.232L411.057 117.704ZM456.6 117.901C443.954 130.279 423.622 130.213 411.057 117.704L407.514 121.232C422.026 135.679 445.507 135.755 460.113 121.459L456.6 117.901ZM456.569 117.931C442.215 132.473 442.292 155.846 456.802 170.291L460.346 166.763C447.782 154.256 447.715 134.018 460.143 121.428L456.569 117.931ZM456.802 170.291L480.374 193.758L483.918 190.23L460.346 166.763L456.802 170.291ZM483.918 193.758L507.49 170.291L503.946 166.764L480.374 190.23L483.918 193.758ZM507.49 170.291C521.968 155.877 522.077 132.576 507.817 118.027L504.231 121.512C516.577 134.108 516.482 154.283 503.946 166.764L507.49 170.291ZM553.227 117.7C540.692 130.18 520.426 130.275 507.774 117.984L504.274 121.555C518.888 135.751 542.293 135.642 556.771 121.228L553.227 117.7ZM576.799 94.2334L553.227 117.7L556.771 121.228L580.343 97.7611L576.799 94.2334ZM553.227 74.2941L576.799 97.7611L580.343 94.2334L556.771 70.7664L553.227 74.2941ZM507.753 74.0307C520.404 61.7196 540.685 61.8074 553.227 74.2941L556.771 70.7664C542.285 56.3449 518.862 56.2438 504.25 70.4631L507.753 74.0307ZM503.941 25.2354C516.482 37.7208 516.571 57.9087 504.209 70.5036L507.793 73.9902C522.072 59.4431 521.969 36.1278 507.484 21.7078L503.941 25.2354ZM480.369 1.76845L503.941 25.2354L507.484 21.7078L483.912 -1.75919L480.369 1.76845ZM460.34 25.2354L483.912 1.76845L480.369 -1.75919L456.797 21.7078L460.34 25.2354ZM460.075 70.5065C447.71 57.9118 447.798 37.7218 460.34 25.2354L456.797 21.7078C442.312 36.1289 442.209 59.4467 456.491 73.9936L460.075 70.5065ZM411.057 74.2976C423.6 61.811 443.881 61.7231 456.532 74.0338L460.034 70.4662C445.423 56.2472 422 56.3485 407.514 70.7699L411.057 74.2976Z" fill="#AB87FF" mask="url(#path-5-inside-3_45_2659)"/>
<mask id="path-7-inside-4_45_2659" fill="white">
<path fill-rule="evenodd" clip-rule="evenodd" d="M432.559 95.7039L432.261 96.0007L432.559 96.2975C446.107 109.785 468.035 109.847 481.659 96.4809C468.236 110.045 468.298 131.873 481.845 145.36L482.144 145.657L482.442 145.36C495.97 131.892 496.051 110.106 482.685 96.5384C496.314 109.845 518.197 109.764 531.725 96.2961L532.023 95.9993L531.725 95.7025C518.187 82.2246 496.281 82.1536 482.655 95.4895C496.049 81.9237 495.977 60.1173 482.439 46.6401L482.141 46.3433L481.843 46.6401C468.306 60.1172 468.234 81.9233 481.627 95.4891C468 82.155 446.096 82.2266 432.559 95.7039Z"/>
</mask>
<path d="M432.261 96.0007L430.489 94.2369L428.717 96.0007L430.489 97.7646L432.261 96.0007ZM481.659 96.4809L483.444 98.2316L479.9 94.7042L481.659 96.4809ZM481.845 145.36L483.617 143.596L481.845 145.36ZM482.144 145.657L480.372 147.421L482.144 149.184L483.915 147.421L482.144 145.657ZM482.442 145.36L484.213 147.124L482.442 145.36ZM482.685 96.5386L484.44 94.7577L480.896 98.2852L482.685 96.5386ZM532.023 95.9993L533.795 97.7631L535.566 95.9993L533.795 94.2355L532.023 95.9993ZM482.655 95.4893L480.868 93.7408L484.412 97.2681L482.655 95.4893ZM482.439 46.6401L480.668 48.4039L482.439 46.6401ZM482.141 46.3433L483.913 44.5794L482.141 42.8156L480.369 44.5794L482.141 46.3433ZM481.843 46.6401L480.071 44.8763L481.843 46.6401ZM481.627 95.4891L479.87 97.2681L483.414 93.7406L481.627 95.4891ZM434.032 97.7646L434.331 97.4677L430.787 93.9401L430.489 94.2369L434.032 97.7646ZM434.331 94.5337L434.032 94.2369L430.489 97.7646L430.787 98.0614L434.331 94.5337ZM479.9 94.7042C467.256 107.109 446.905 107.052 434.331 94.5337L430.787 98.0614C445.309 112.519 468.814 112.584 483.417 98.2577L479.9 94.7042ZM479.874 94.7303C465.486 109.269 465.552 132.667 480.074 147.124L483.617 143.596C471.044 131.079 470.986 110.82 483.444 98.2316L479.874 94.7303ZM480.074 147.124L480.372 147.421L483.915 143.893L483.617 143.596L480.074 147.124ZM483.915 147.421L484.213 147.124L480.67 143.596L480.372 143.893L483.915 147.421ZM484.213 147.124C498.714 132.687 498.801 109.336 484.474 94.792L480.896 98.2852C493.301 110.877 493.225 131.097 480.67 143.596L484.213 147.124ZM529.953 94.5323C517.398 107.032 497.088 107.107 484.44 94.7577L480.931 98.3195C495.539 112.583 518.996 112.496 533.497 98.06L529.953 94.5323ZM530.251 94.2355L529.953 94.5323L533.497 98.06L533.795 97.7631L530.251 94.2355ZM529.953 97.4663L530.251 97.7631L533.795 94.2355L533.497 93.9387L529.953 97.4663ZM484.412 97.2681C497.058 84.8916 517.388 84.9576 529.953 97.4663L533.497 93.9387C518.985 79.4918 495.505 79.4157 480.899 93.7105L484.412 97.2681ZM480.668 48.4039C493.232 60.912 493.299 81.1506 480.868 93.7408L484.442 97.2379C498.799 82.6964 498.722 59.3225 484.211 44.8762L480.668 48.4039ZM480.369 48.1071L480.668 48.4039L484.211 44.8762L483.913 44.5794L480.369 48.1071ZM483.615 48.4039L483.913 48.1071L480.369 44.5794L480.071 44.8763L483.615 48.4039ZM483.414 93.7406C470.984 81.1504 471.051 60.912 483.615 48.4039L480.071 44.8763C465.561 59.3224 465.483 82.6962 479.84 97.2377L483.414 93.7406ZM434.331 97.4677C446.895 84.9595 467.224 84.893 479.87 97.2681L483.383 93.7102C468.777 79.4171 445.298 79.4938 430.787 93.9401L434.331 97.4677Z" fill="#AB87FF" mask="url(#path-7-inside-4_45_2659)"/>
<mask id="path-9-inside-5_45_2659" fill="white">
<path fill-rule="evenodd" clip-rule="evenodd" d="M1025.94 5.5957H969.902V61.2293C969.902 80.2981 985.252 95.782 1004.27 95.9996C985.256 96.2224 969.912 111.704 969.912 130.77L969.912 186.403H1025.95C1044.98 186.403 1060.44 171.117 1060.72 152.153C1061 171.117 1076.46 186.403 1095.49 186.403H1151.52V130.769C1151.52 111.718 1136.2 96.2457 1117.21 95.9997C1136.2 95.7488 1151.52 80.278 1151.52 61.2301V5.59653H1095.48C1076.44 5.59653 1060.98 20.8941 1060.71 39.867C1060.44 20.8937 1044.98 5.5957 1025.94 5.5957Z"/>
</mask>
<path d="M969.902 5.5957V3.0957H967.402V5.5957H969.902ZM1004.27 95.9996L1004.3 98.4995L1004.3 93.4998L1004.27 95.9996ZM969.912 130.77H967.412H969.912ZM969.912 186.403H967.412L967.412 188.903H969.912V186.403ZM1060.72 152.154L1063.22 152.117L1058.22 152.117L1060.72 152.154ZM1151.52 186.403V188.903H1154.02V186.403H1151.52ZM1117.21 95.9997L1117.18 93.4999L1117.18 98.4995L1117.21 95.9997ZM1151.52 5.59653H1154.02V3.09653H1151.52V5.59653ZM1060.71 39.867L1058.21 39.9023L1063.21 39.9024L1060.71 39.867ZM969.902 8.0957H1025.94V3.0957H969.902V8.0957ZM972.402 61.2293V5.5957H967.402V61.2293H972.402ZM1004.3 93.4998C986.648 93.2978 972.402 78.927 972.402 61.2293H967.402C967.402 81.6693 983.855 98.2662 1004.24 98.4995L1004.3 93.4998ZM1004.24 93.4998C983.859 93.7386 967.412 110.333 967.412 130.77H972.412C972.412 113.075 986.653 98.7062 1004.3 98.4995L1004.24 93.4998ZM967.412 130.77L967.412 186.403H972.412L972.412 130.77H967.412ZM969.912 188.903H1025.95V183.903H969.912V188.903ZM1025.95 188.903C1046.35 188.903 1062.92 172.518 1063.22 152.191L1058.22 152.117C1057.96 169.716 1043.61 183.903 1025.95 183.903V188.903ZM1095.49 183.903C1077.83 183.903 1063.48 169.716 1063.22 152.117L1058.22 152.191C1058.52 172.518 1075.09 188.903 1095.49 188.903V183.903ZM1151.52 183.903H1095.49V188.903H1151.52V183.903ZM1149.02 130.769V186.403H1154.02V130.769H1149.02ZM1117.18 98.4995C1134.81 98.7279 1149.02 113.088 1149.02 130.769H1154.02C1154.02 110.349 1137.6 93.7638 1117.24 93.4999L1117.18 98.4995ZM1149.02 61.2301C1149.02 78.9083 1134.8 93.2669 1117.18 93.4999L1117.25 98.4995C1137.6 98.2304 1154.02 81.6476 1154.02 61.2301H1149.02ZM1149.02 5.59653V61.2301H1154.02V5.59653H1149.02ZM1095.48 8.09653H1151.52V3.09653H1095.48V8.09653ZM1063.21 39.9024C1063.46 22.2943 1077.81 8.09653 1095.48 8.09653V3.09653C1075.07 3.09653 1058.5 19.4939 1058.21 39.8316L1063.21 39.9024ZM1025.94 8.0957C1043.61 8.0957 1057.96 22.2939 1058.21 39.9023L1063.21 39.8316C1062.92 19.4935 1046.35 3.0957 1025.94 3.0957V8.0957Z" fill="#AB87FF" mask="url(#path-9-inside-5_45_2659)"/>
<mask id="path-11-inside-6_45_2659" fill="white">
<path fill-rule="evenodd" clip-rule="evenodd" d="M1025.94 5.59619H969.902V61.2298C969.902 80.2986 985.252 95.7825 1004.27 96.0001C985.256 96.2229 969.912 111.705 969.912 130.77L969.912 186.404H1025.95C1044.98 186.404 1060.44 171.117 1060.72 152.154C1061 171.117 1076.46 186.403 1095.49 186.403H1151.52V130.77C1151.52 111.719 1136.2 96.2462 1117.21 96.0002C1136.2 95.7493 1151.52 80.2785 1151.52 61.2306V5.59702H1095.48C1076.44 5.59702 1060.98 20.8946 1060.71 39.8675C1060.44 20.8942 1044.98 5.59619 1025.94 5.59619Z"/>
</mask>
<path d="M969.902 5.59619V3.09619H967.402V5.59619H969.902ZM1004.27 96.0001L1004.3 98.5L1004.3 93.5003L1004.27 96.0001ZM969.912 130.77H967.412H969.912ZM969.912 186.404H967.412L967.412 188.904H969.912V186.404ZM1060.72 152.154L1063.22 152.117L1058.22 152.117L1060.72 152.154ZM1151.52 186.403V188.903H1154.02V186.403H1151.52ZM1117.21 96.0002L1117.18 93.5004L1117.18 98.5L1117.21 96.0002ZM1151.52 5.59702H1154.02V3.09702H1151.52V5.59702ZM1060.71 39.8675L1058.21 39.9028L1063.21 39.9028L1060.71 39.8675ZM969.902 8.09619H1025.94V3.09619H969.902V8.09619ZM972.402 61.2298V5.59619H967.402V61.2298H972.402ZM1004.3 93.5003C986.648 93.2983 972.402 78.9275 972.402 61.2298H967.402C967.402 81.6698 983.855 98.2667 1004.24 98.5L1004.3 93.5003ZM1004.24 93.5003C983.859 93.7391 967.412 110.334 967.412 130.77H972.412C972.412 113.076 986.653 98.7067 1004.3 98.5L1004.24 93.5003ZM967.412 130.77L967.412 186.404H972.412L972.412 130.77H967.412ZM969.912 188.904H1025.95V183.904H969.912V188.904ZM1025.95 188.904C1046.35 188.904 1062.92 172.518 1063.22 152.191L1058.22 152.117C1057.96 169.716 1043.61 183.904 1025.95 183.904V188.904ZM1095.49 183.903C1077.83 183.903 1063.48 169.716 1063.22 152.117L1058.22 152.191C1058.52 172.518 1075.09 188.903 1095.49 188.903V183.903ZM1151.52 183.903H1095.49V188.903H1151.52V183.903ZM1149.02 130.77V186.403H1154.02V130.77H1149.02ZM1117.18 98.5C1134.81 98.7284 1149.02 113.089 1149.02 130.77H1154.02C1154.02 110.349 1137.6 93.7643 1117.24 93.5004L1117.18 98.5ZM1149.02 61.2306C1149.02 78.9088 1134.8 93.2674 1117.18 93.5004L1117.25 98.4999C1137.6 98.2309 1154.02 81.6481 1154.02 61.2306H1149.02ZM1149.02 5.59702V61.2306H1154.02V5.59702H1149.02ZM1095.48 8.09702H1151.52V3.09702H1095.48V8.09702ZM1063.21 39.9028C1063.46 22.2948 1077.81 8.09702 1095.48 8.09702V3.09702C1075.07 3.09702 1058.5 19.4944 1058.21 39.8321L1063.21 39.9028ZM1025.94 8.09619C1043.61 8.09619 1057.96 22.2944 1058.21 39.9028L1063.21 39.8321C1062.92 19.494 1046.35 3.09619 1025.94 3.09619V8.09619Z" fill="#AB87FF" mask="url(#path-11-inside-6_45_2659)"/>
<mask id="path-13-inside-7_45_2659" fill="white">
<path fill-rule="evenodd" clip-rule="evenodd" d="M987.858 72.5342L964.286 96.0012L987.858 119.468C1001.39 132.942 1023.29 133.017 1036.92 119.694C1023.54 133.26 1023.61 155.056 1037.15 168.528L1060.72 191.995L1084.29 168.528C1097.8 155.081 1097.9 133.342 1084.6 119.77C1098.23 133.013 1120.06 132.911 1133.57 119.465L1157.14 95.9977L1133.57 72.5308C1120.06 59.0766 1098.2 58.9822 1084.57 72.2474C1097.89 58.6764 1097.8 36.9248 1084.28 23.4721L1060.71 0.0051137L1037.14 23.4721C1023.63 36.9224 1023.53 58.6688 1036.84 72.2403C1023.21 58.9857 1001.37 59.0837 987.858 72.5342Z"/>
</mask>
<path d="M964.286 96.0012L962.514 94.2374L960.743 96.0012L962.514 97.765L964.286 96.0012ZM1036.91 119.694L1038.7 121.441L1035.16 117.914L1036.91 119.694ZM1037.15 168.528L1035.37 170.292L1037.15 168.528ZM1060.72 191.995L1058.95 193.759L1060.72 195.522L1062.49 193.759L1060.72 191.995ZM1084.29 168.528L1086.06 170.292L1084.29 168.528ZM1084.6 119.77L1086.35 117.985L1082.8 121.512L1084.6 119.77ZM1157.14 95.9977L1158.91 97.7616L1160.69 95.9977L1158.91 94.2339L1157.14 95.9977ZM1084.57 72.2474L1082.78 70.504L1086.32 74.0312L1084.57 72.2474ZM1060.71 0.0051137L1062.48 -1.75871L1060.71 -3.52253L1058.94 -1.75871L1060.71 0.0051137ZM1037.14 23.4721L1038.91 25.2359L1037.14 23.4721ZM1036.84 72.2403L1035.09 74.0248L1038.64 70.4974L1036.84 72.2403ZM966.058 97.765L989.63 74.2981L986.086 70.7704L962.514 94.2374L966.058 97.765ZM989.63 117.704L966.058 94.2374L962.514 97.765L986.086 121.232L989.63 117.704ZM1035.16 117.914C1022.51 130.279 1002.19 130.209 989.63 117.704L986.086 121.232C1000.59 135.674 1024.06 135.755 1038.67 121.474L1035.16 117.914ZM1035.13 117.946C1020.79 132.489 1020.87 155.851 1035.37 170.292L1038.92 166.764C1026.36 154.261 1026.29 134.032 1038.7 121.441L1035.13 117.946ZM1035.37 170.292L1058.95 193.759L1062.49 190.231L1038.92 166.764L1035.37 170.292ZM1062.49 193.759L1086.06 170.292L1082.52 166.764L1058.95 190.231L1062.49 193.759ZM1086.06 170.292C1100.54 155.878 1100.65 132.576 1086.39 118.028L1082.8 121.512C1095.15 134.108 1095.05 154.284 1082.52 166.764L1086.06 170.292ZM1131.8 117.701C1119.26 130.181 1099 130.275 1086.35 117.985L1082.85 121.555C1097.46 135.751 1120.86 135.642 1135.34 121.229L1131.8 117.701ZM1155.37 94.2339L1131.8 117.701L1135.34 121.229L1158.91 97.7616L1155.37 94.2339ZM1131.8 74.2946L1155.37 97.7616L1158.91 94.2339L1135.34 70.7669L1131.8 74.2946ZM1086.32 74.0312C1098.98 61.7201 1119.26 61.8079 1131.8 74.2946L1135.34 70.7669C1120.86 56.3454 1097.43 56.2442 1082.82 70.4636L1086.32 74.0312ZM1082.51 25.2359C1095.05 37.7213 1095.14 57.9092 1082.78 70.504L1086.37 73.9907C1100.64 59.4436 1100.54 36.1283 1086.06 21.7083L1082.51 25.2359ZM1058.94 1.76894L1082.51 25.2359L1086.06 21.7083L1062.48 -1.75871L1058.94 1.76894ZM1038.91 25.2359L1062.48 1.76894L1058.94 -1.75871L1035.37 21.7083L1038.91 25.2359ZM1038.64 70.4974C1026.28 57.9021 1026.37 37.7191 1038.91 25.2359L1035.37 21.7083C1020.89 36.1258 1020.78 59.4354 1035.05 73.9831L1038.64 70.4974ZM989.63 74.2981C1002.17 61.8147 1022.44 61.7236 1035.09 74.0248L1038.6 70.4557C1023.98 56.2478 1000.57 56.3527 986.086 70.7704L989.63 74.2981Z" fill="#AB87FF" mask="url(#path-13-inside-7_45_2659)"/>
<mask id="path-15-inside-8_45_2659" fill="white">
<path fill-rule="evenodd" clip-rule="evenodd" d="M1011.13 95.7039L1010.83 96.0007L1011.13 96.2975C1024.68 109.785 1046.61 109.847 1060.23 96.4809C1046.81 110.045 1046.87 131.873 1060.42 145.36L1060.71 145.657L1061.01 145.36C1074.54 131.892 1074.62 110.106 1061.26 96.5384C1074.88 109.845 1096.77 109.764 1110.3 96.2961L1110.59 95.9993L1110.3 95.7025C1096.76 82.2247 1074.85 82.1536 1061.23 95.4892C1074.62 81.9235 1074.55 60.1169 1061.01 46.6396L1060.71 46.3428L1060.41 46.6396C1046.87 60.1268 1046.81 81.9556 1060.23 95.5192C1046.6 82.1549 1024.68 82.2165 1011.13 95.7039Z"/>
</mask>
<path d="M1010.83 96.0007L1009.06 94.2369L1007.29 96.0007L1009.06 97.7646L1010.83 96.0007ZM1060.23 96.4809L1062.01 98.2316L1058.47 94.7042L1060.23 96.4809ZM1060.42 145.36L1062.19 143.596L1060.42 145.36ZM1060.71 145.657L1058.94 147.421L1060.71 149.184L1062.49 147.421L1060.71 145.657ZM1061.01 145.36L1062.78 147.124L1061.01 145.36ZM1061.26 96.5386L1063.01 94.7577L1059.47 98.2852L1061.26 96.5386ZM1110.59 95.9993L1112.37 97.7631L1114.14 95.9993L1112.37 94.2355L1110.59 95.9993ZM1061.23 95.4892L1059.44 93.7407L1062.98 97.2681L1061.23 95.4892ZM1060.71 46.3428L1062.48 44.5789L1060.71 42.8151L1058.94 44.5789L1060.71 46.3428ZM1060.41 46.6396L1058.64 44.8758L1060.41 46.6396ZM1060.23 95.5192L1058.47 97.296L1062.01 93.7685L1060.23 95.5192ZM1012.6 97.7646L1012.9 97.4677L1009.36 93.9401L1009.06 94.2369L1012.6 97.7646ZM1012.9 94.5337L1012.6 94.2369L1009.06 97.7646L1009.36 98.0614L1012.9 94.5337ZM1058.47 94.7042C1045.83 107.109 1025.48 107.052 1012.9 94.5337L1009.36 98.0614C1023.88 112.519 1047.38 112.584 1061.99 98.2577L1058.47 94.7042ZM1058.45 94.7303C1044.06 109.269 1044.12 132.667 1058.65 147.124L1062.19 143.596C1049.62 131.079 1049.56 110.82 1062.01 98.2316L1058.45 94.7303ZM1058.65 147.124L1058.94 147.421L1062.49 143.893L1062.19 143.596L1058.65 147.124ZM1062.49 147.421L1062.78 147.124L1059.24 143.596L1058.94 143.893L1062.49 147.421ZM1062.78 147.124C1077.29 132.687 1077.37 109.336 1063.05 94.792L1059.47 98.2852C1071.87 110.877 1071.8 131.097 1059.24 143.596L1062.78 147.124ZM1108.52 94.5323C1095.97 107.032 1075.66 107.107 1063.01 94.7577L1059.5 98.3195C1074.11 112.583 1097.57 112.496 1112.07 98.06L1108.52 94.5323ZM1108.82 94.2355L1108.52 94.5323L1112.07 98.06L1112.37 97.7631L1108.82 94.2355ZM1108.52 97.4663L1108.82 97.7631L1112.37 94.2355L1112.07 93.9387L1108.52 97.4663ZM1062.98 97.2681C1075.63 84.8916 1095.96 84.9576 1108.52 97.4663L1112.07 93.9387C1097.56 79.4918 1074.08 79.4157 1059.47 93.7104L1062.98 97.2681ZM1059.24 48.4034C1071.8 60.9117 1071.87 81.1505 1059.44 93.7407L1063.01 97.2378C1077.37 82.6964 1077.29 59.3221 1062.78 44.8758L1059.24 48.4034ZM1058.94 48.1066L1059.24 48.4034L1062.78 44.8758L1062.48 44.5789L1058.94 48.1066ZM1062.19 48.4034L1062.48 48.1066L1058.94 44.5789L1058.64 44.8758L1062.19 48.4034ZM1062.01 93.7685C1049.56 81.1803 1049.61 60.9209 1062.19 48.4034L1058.64 44.8758C1044.12 59.3327 1044.06 82.7308 1058.44 97.2698L1062.01 93.7685ZM1012.9 97.4677C1025.48 84.9501 1045.83 84.8929 1058.47 97.296L1061.99 93.7423C1047.38 79.417 1023.88 79.4829 1009.36 93.9401L1012.9 97.4677Z" fill="#AB87FF" mask="url(#path-15-inside-8_45_2659)"/>
<mask id="path-17-inside-9_45_2659" fill="white">
<path fill-rule="evenodd" clip-rule="evenodd" d="M61.6548 5.59521H5.61719V61.2288C5.61719 80.2977 20.9664 95.7815 39.9837 95.9991C20.9709 96.222 5.62696 111.704 5.62696 130.769L5.62695 186.403H61.6646C80.6945 186.403 96.154 171.116 96.4333 152.153C96.713 171.116 112.172 186.402 131.202 186.402H187.24V130.769C187.24 111.718 171.919 96.2452 152.927 95.9992C171.915 95.7483 187.23 80.2775 187.23 61.2296V5.59604H131.193C112.157 5.59604 96.6945 20.8916 96.4238 39.8627C96.1537 20.8912 80.6905 5.59521 61.6548 5.59521Z"/>
</mask>
<path d="M5.61719 5.59521V3.09521H3.11719V5.59521H5.61719ZM39.9837 95.9991L40.013 98.499L40.0123 93.4993L39.9837 95.9991ZM5.62696 130.769H3.12696H5.62696ZM5.62695 186.403H3.12695L3.12695 188.903H5.62695V186.403ZM96.4334 152.153L98.9331 152.116L93.9336 152.116L96.4334 152.153ZM187.24 186.402V188.902H189.74V186.402H187.24ZM152.927 95.9992L152.894 93.4994L152.895 98.499L152.927 95.9992ZM187.23 5.59604H189.73V3.09604H187.23V5.59604ZM96.4238 39.8627L93.9241 39.8983L98.9236 39.8983L96.4238 39.8627ZM5.61719 8.09521H61.6548V3.09521H5.61719V8.09521ZM8.11719 61.2288V5.59521H3.11719V61.2288H8.11719ZM40.0123 93.4993C22.3629 93.2973 8.11719 78.9265 8.11719 61.2288H3.11719C3.11719 81.6688 19.5699 98.2657 39.9551 98.499L40.0123 93.4993ZM39.9544 93.4993C19.574 93.7382 3.12696 110.333 3.12696 130.769H8.12696C8.12696 113.075 22.3678 98.7058 40.013 98.499L39.9544 93.4993ZM3.12696 130.769L3.12695 186.403H8.12695L8.12696 130.769H3.12696ZM5.62695 188.903H61.6646V183.903H5.62695V188.903ZM61.6646 188.903C82.0627 188.903 98.6334 172.518 98.9331 152.19L93.9336 152.116C93.6742 169.715 79.326 183.903 61.6646 183.903V188.903ZM131.202 183.902C113.541 183.902 99.1928 169.715 98.9331 152.116L93.9336 152.19C94.2336 172.517 110.804 188.902 131.202 188.902V183.902ZM187.24 183.902H131.202V188.902H187.24V183.902ZM184.74 130.769V186.402H189.74V130.769H184.74ZM152.895 98.499C170.521 98.7274 184.74 113.088 184.74 130.769H189.74C189.74 110.348 173.318 93.7633 152.959 93.4994L152.895 98.499ZM184.73 61.2296C184.73 78.9078 170.516 93.2664 152.894 93.4994L152.96 98.499C173.314 98.2299 189.73 81.6471 189.73 61.2296H184.73ZM184.73 5.59604V61.2296H189.73V5.59604H184.73ZM131.193 8.09604H187.23V3.09604H131.193V8.09604ZM98.9236 39.8983C99.1747 22.2919 113.526 8.09604 131.193 8.09604V3.09604C110.789 3.09604 94.2142 19.4912 93.9241 39.827L98.9236 39.8983ZM61.6548 8.09521C79.3217 8.09521 93.6734 22.2915 93.9241 39.8983L98.9236 39.8271C98.634 19.4909 82.0593 3.09521 61.6548 3.09521V8.09521Z" fill="#AB87FF" mask="url(#path-17-inside-9_45_2659)"/>
<mask id="path-19-inside-10_45_2659" fill="white">
<path fill-rule="evenodd" clip-rule="evenodd" d="M61.6548 5.5957H5.61719V61.2293C5.61719 80.2981 20.9664 95.782 39.9837 95.9996C20.9709 96.2224 5.62696 111.704 5.62696 130.77L5.62695 186.403H61.6646C80.6945 186.403 96.154 171.117 96.4333 152.153C96.713 171.117 112.172 186.403 131.202 186.403H187.24V130.769C187.24 111.718 171.919 96.2457 152.927 95.9997C171.915 95.7488 187.23 80.278 187.23 61.2301V5.59653H131.193C112.157 5.59653 96.6945 20.8921 96.4238 39.8632C96.1537 20.8917 80.6905 5.5957 61.6548 5.5957Z"/>
</mask>
<path d="M5.61719 5.5957V3.0957H3.11719V5.5957H5.61719ZM39.9837 95.9996L40.013 98.4995L40.0123 93.4998L39.9837 95.9996ZM5.62696 130.77H3.12696H5.62696ZM5.62695 186.403H3.12695L3.12695 188.903H5.62695V186.403ZM96.4334 152.154L98.9331 152.117L93.9336 152.117L96.4334 152.154ZM187.24 186.403V188.903H189.74V186.403H187.24ZM152.927 95.9997L152.894 93.4999L152.895 98.4995L152.927 95.9997ZM187.23 5.59653H189.73V3.09653H187.23V5.59653ZM96.4238 39.8632L93.9241 39.8988L98.9236 39.8988L96.4238 39.8632ZM5.61719 8.0957H61.6548V3.0957H5.61719V8.0957ZM8.11719 61.2293V5.5957H3.11719V61.2293H8.11719ZM40.0123 93.4998C22.3629 93.2978 8.11719 78.927 8.11719 61.2293H3.11719C3.11719 81.6693 19.5699 98.2662 39.9551 98.4995L40.0123 93.4998ZM39.9544 93.4998C19.574 93.7386 3.12696 110.333 3.12696 130.77H8.12696C8.12696 113.075 22.3678 98.7062 40.013 98.4995L39.9544 93.4998ZM3.12696 130.77L3.12695 186.403H8.12695L8.12696 130.77H3.12696ZM5.62695 188.903H61.6646V183.903H5.62695V188.903ZM61.6646 188.903C82.0627 188.903 98.6334 172.518 98.9331 152.191L93.9336 152.117C93.6742 169.716 79.326 183.903 61.6646 183.903V188.903ZM131.202 183.903C113.541 183.903 99.1928 169.716 98.9331 152.117L93.9336 152.191C94.2336 172.518 110.804 188.903 131.202 188.903V183.903ZM187.24 183.903H131.202V188.903H187.24V183.903ZM184.74 130.769V186.403H189.74V130.769H184.74ZM152.895 98.4995C170.521 98.7279 184.74 113.088 184.74 130.769H189.74C189.74 110.349 173.318 93.7638 152.959 93.4999L152.895 98.4995ZM184.73 61.2301C184.73 78.9083 170.516 93.2669 152.894 93.4999L152.96 98.4995C173.314 98.2303 189.73 81.6475 189.73 61.2301H184.73ZM184.73 5.59653V61.2301H189.73V5.59653H184.73ZM131.193 8.09653H187.23V3.09653H131.193V8.09653ZM98.9236 39.8988C99.1747 22.2924 113.526 8.09653 131.193 8.09653V3.09653C110.789 3.09653 94.2142 19.4917 93.9241 39.8275L98.9236 39.8988ZM61.6548 8.0957C79.3217 8.0957 93.6734 22.292 93.9241 39.8988L98.9236 39.8276C98.634 19.4913 82.0593 3.0957 61.6548 3.0957V8.0957Z" fill="#AB87FF" mask="url(#path-19-inside-10_45_2659)"/>
<mask id="path-21-inside-11_45_2659" fill="white">
<path fill-rule="evenodd" clip-rule="evenodd" d="M23.5718 72.5342L0 96.0012L23.5719 119.468C37.1059 132.942 59.002 133.017 72.6292 119.693C59.2509 133.26 59.3279 155.055 72.8603 168.527L96.4321 191.994L120.004 168.527C133.508 155.084 133.613 133.352 120.32 119.779C133.953 133.013 155.781 132.908 169.285 119.465L192.857 95.9977L169.285 72.5307C155.767 59.073 133.907 58.9822 120.277 72.2581C133.607 58.6878 133.514 36.9283 119.998 23.4721L96.4263 0.0051137L72.8544 23.4721C59.344 36.9224 59.2453 58.6688 72.5585 72.2403C58.9265 58.9857 37.0825 59.0837 23.5718 72.5342Z"/>
</mask>
<path d="M0 96.0012L-1.7717 94.2374L-3.54341 96.0012L-1.7717 97.765L0 96.0012ZM72.6289 119.694L74.4169 121.441L70.8733 117.914L72.6289 119.694ZM72.8603 168.527L74.632 166.763L72.8603 168.527ZM96.4321 191.994L94.6604 193.758L96.4321 195.522L98.2038 193.758L96.4321 191.994ZM120.004 168.527L121.776 170.291L120.004 168.527ZM120.32 119.78L122.069 117.994L118.526 121.521L120.32 119.78ZM169.285 119.465L167.513 117.701L169.285 119.465ZM192.857 95.9977L194.629 97.7616L196.4 95.9977L194.629 94.2339L192.857 95.9977ZM120.277 72.2581L118.485 70.514L122.029 74.0411L120.277 72.2581ZM96.4263 0.0051137L98.198 -1.75871L96.4263 -3.52253L94.6546 -1.75871L96.4263 0.0051137ZM72.8544 23.4721L74.6261 25.2359L72.8544 23.4721ZM72.5585 72.2403L70.8079 74.0248L74.3511 70.4974L72.5585 72.2403ZM1.7717 97.765L25.3435 74.2981L21.8001 70.7704L-1.7717 94.2374L1.7717 97.765ZM25.3436 117.704L1.7717 94.2374L-1.7717 97.765L21.8002 121.232L25.3436 117.704ZM70.8733 117.914C58.2262 130.279 37.9044 130.209 25.3436 117.704L21.8002 121.232C36.3072 135.675 59.7772 135.755 74.3845 121.473L70.8733 117.914ZM70.8409 117.946C56.5007 132.489 56.5833 155.85 71.0886 170.291L74.632 166.763C62.0727 154.26 62.0011 134.032 74.4169 121.441L70.8409 117.946ZM71.0886 170.291L94.6604 193.758L98.2038 190.23L74.632 166.763L71.0886 170.291ZM98.2038 193.758L121.776 170.291L118.232 166.764L94.6604 190.23L98.2038 193.758ZM121.776 170.291C136.25 155.881 136.363 132.587 122.114 118.038L118.526 121.521C130.863 134.118 130.765 154.287 118.232 166.764L121.776 170.291ZM167.513 117.701C154.981 130.178 134.722 130.275 122.069 117.994L118.571 121.566C133.185 135.751 156.582 135.639 171.057 121.229L167.513 117.701ZM191.085 94.2339L167.513 117.701L171.057 121.229L194.629 97.7616L191.085 94.2339ZM167.513 74.2946L191.085 97.7616L194.629 94.2339L171.057 70.7669L167.513 74.2946ZM122.029 74.0411C134.679 61.7201 154.967 61.8045 167.513 74.2946L171.057 70.7669C156.567 56.3415 133.135 56.2442 118.524 70.4751L122.029 74.0411ZM118.226 25.2359C130.771 37.7246 130.857 57.9198 118.485 70.514L122.068 74.0022C136.357 59.4558 136.258 36.1321 121.77 21.7083L118.226 25.2359ZM94.6546 1.76894L118.226 25.2359L121.77 21.7083L98.198 -1.75871L94.6546 1.76894ZM74.6261 25.2359L98.198 1.76894L94.6546 -1.75871L71.0827 21.7083L74.6261 25.2359ZM74.3511 70.4974C61.9955 57.9021 62.0871 37.7191 74.6261 25.2359L71.0827 21.7083C56.6008 36.1258 56.4952 59.4354 70.766 73.9831L74.3511 70.4974ZM25.3435 74.2981C37.8827 61.8147 58.1564 61.7236 70.8079 74.0248L74.3092 70.4557C59.6966 56.2478 36.2823 56.3527 21.8001 70.7704L25.3435 74.2981Z" fill="#AB87FF" mask="url(#path-21-inside-11_45_2659)"/>
<mask id="path-23-inside-12_45_2659" fill="white">
<path fill-rule="evenodd" clip-rule="evenodd" d="M46.845 95.7039L46.5469 96.0007L46.845 96.2975C60.399 109.791 82.3398 109.847 95.9626 96.4636C82.5225 110.026 82.579 131.867 96.132 145.36L96.4302 145.657L96.7283 145.36C110.252 131.896 110.338 110.119 96.9837 96.5506C110.613 109.845 132.487 109.76 146.011 96.2961L146.309 95.9993L146.011 95.7025C132.473 82.2246 110.568 82.1536 96.9413 95.4895C110.335 81.9237 110.263 60.1173 96.7254 46.6401L96.4272 46.3433L96.1291 46.6401C82.5918 60.1172 82.5197 81.9233 95.9129 95.4891C82.2865 82.155 60.3825 82.2266 46.845 95.7039Z"/>
</mask>
<path d="M46.5469 96.0007L44.7752 94.2369L43.0035 96.0007L44.7752 97.7646L46.5469 96.0007ZM95.9626 96.4636L97.7462 98.2155L94.2027 94.6881L95.9626 96.4636ZM96.132 145.36L97.9037 143.596L96.132 145.36ZM96.4302 145.657L94.6585 147.421L96.4302 149.184L98.2019 147.421L96.4302 145.657ZM96.9839 96.5508L98.7374 94.769L95.1942 98.2965L96.9839 96.5508ZM146.309 95.9993L148.081 97.7631L149.852 95.9993L148.081 94.2355L146.309 95.9993ZM146.011 95.7025L144.239 97.4663L146.011 95.7025ZM96.9415 95.4893L95.1545 93.7408L98.6979 97.2681L96.9415 95.4893ZM96.7254 46.6401L94.9537 48.4039L96.7254 46.6401ZM96.4272 46.3433L98.199 44.5794L96.4272 42.8156L94.6555 44.5794L96.4272 46.3433ZM96.1291 46.6401L94.3574 44.8763L96.1291 46.6401ZM95.9129 95.4891L94.1565 97.2681L97.6998 93.7406L95.9129 95.4891ZM48.3186 97.7646L48.6167 97.4677L45.0733 93.9401L44.7752 94.2369L48.3186 97.7646ZM48.6167 94.5337L48.3186 94.2369L44.7752 97.7646L45.0733 98.0614L48.6167 94.5337ZM94.2027 94.6881C81.5596 107.109 61.1962 107.057 48.6167 94.5337L45.0733 98.0614C59.6018 112.525 83.12 112.585 97.7225 98.2391L94.2027 94.6881ZM94.1789 94.7117C79.7723 109.249 79.8328 132.661 94.3603 147.124L97.9037 143.596C85.3251 131.073 85.2727 110.802 97.7462 98.2155L94.1789 94.7117ZM94.3603 147.124L94.6585 147.421L98.2019 143.893L97.9037 143.596L94.3603 147.124ZM98.2019 147.421L98.5 147.124L94.9566 143.596L94.6585 143.893L98.2019 147.421ZM98.5 147.124C112.997 132.692 113.088 109.35 98.7736 94.805L95.1942 98.2965C107.587 110.889 107.508 131.1 94.9566 143.596L98.5 147.124ZM144.239 94.5323C131.688 107.028 111.386 107.107 98.7374 94.769L95.2304 98.3325C109.84 112.583 133.286 112.492 147.783 98.06L144.239 94.5323ZM144.537 94.2355L144.239 94.5323L147.783 98.06L148.081 97.7631L144.537 94.2355ZM144.239 97.4663L144.537 97.7631L148.081 94.2355L147.783 93.9387L144.239 97.4663ZM98.6979 97.2681C111.344 84.8916 131.675 84.9576 144.239 97.4663L147.783 93.9387C133.271 79.4918 109.791 79.4157 95.185 93.7105L98.6979 97.2681ZM94.9537 48.4039C107.518 60.912 107.585 81.1506 95.1545 93.7408L98.7284 97.2379C113.085 82.6964 113.008 59.3225 98.4971 44.8762L94.9537 48.4039ZM94.6555 48.1071L94.9537 48.4039L98.4971 44.8762L98.199 44.5794L94.6555 48.1071ZM97.9008 48.4039L98.199 48.1071L94.6555 44.5794L94.3574 44.8763L97.9008 48.4039ZM97.6998 93.7406C85.2699 81.1504 85.3368 60.912 97.9008 48.4039L94.3574 44.8763C79.8467 59.3224 79.7695 82.6962 94.1259 97.2377L97.6998 93.7406ZM48.6167 97.4677C61.1808 84.9595 81.5101 84.893 94.1565 97.2681L97.6692 93.7102C83.0628 79.4171 59.5842 79.4938 45.0733 93.9401L48.6167 97.4677Z" fill="#AB87FF" mask="url(#path-23-inside-12_45_2659)"/>
<mask id="path-25-inside-13_45_2659" fill="white">
<path fill-rule="evenodd" clip-rule="evenodd" d="M640.225 5.59521H584.188V61.2288C584.188 80.2977 599.537 95.7816 618.554 95.9991C599.542 96.2221 584.198 111.704 584.198 130.769L584.198 186.403H640.235C659.265 186.403 674.725 171.116 675.004 152.153C675.284 171.116 690.743 186.402 709.773 186.402H765.811V130.769C765.811 111.718 750.49 96.2452 731.497 95.9992C750.486 95.7483 765.801 80.2775 765.801 61.2296V5.59604H709.764C690.723 5.59604 675.256 20.9004 674.994 39.8791C674.733 20.9 659.266 5.59521 640.225 5.59521Z"/>
</mask>
<path d="M584.188 5.59521V3.09521H581.688V5.59521H584.188ZM618.554 95.9991L618.584 98.499L618.583 93.4993L618.554 95.9991ZM584.198 130.769H581.698H584.198ZM584.198 186.403H581.698L581.698 188.903H584.198V186.403ZM675.004 152.153L677.504 152.116L672.504 152.116L675.004 152.153ZM765.811 186.402V188.902H768.311V186.402H765.811ZM731.498 95.9992L731.465 93.4994L731.465 98.499L731.498 95.9992ZM765.801 5.59604H768.301V3.09604H765.801V5.59604ZM674.994 39.8791L672.495 39.9135L677.494 39.9136L674.994 39.8791ZM584.188 8.09521H640.225V3.09521H584.188V8.09521ZM586.688 61.2288V5.59521H581.688V61.2288H586.688ZM618.583 93.4993C600.933 93.2974 586.688 78.9266 586.688 61.2288H581.688C581.688 81.6689 598.14 98.2658 618.526 98.499L618.583 93.4993ZM618.525 93.4993C598.145 93.7383 581.698 110.333 581.698 130.769H586.698C586.698 113.075 600.938 98.7059 618.584 98.499L618.525 93.4993ZM581.698 130.769L581.698 186.403H586.698L586.698 130.769H581.698ZM584.198 188.903H640.235V183.903H584.198V188.903ZM640.235 188.903C660.634 188.903 677.204 172.518 677.504 152.19L672.504 152.116C672.245 169.715 657.897 183.903 640.235 183.903V188.903ZM709.773 183.902C692.112 183.902 677.764 169.715 677.504 152.116L672.504 152.19C672.804 172.517 689.375 188.902 709.773 188.902V183.902ZM765.811 183.902H709.773V188.902H765.811V183.902ZM763.311 130.769V186.402H768.311V130.769H763.311ZM731.465 98.499C749.092 98.7274 763.311 113.088 763.311 130.769H768.311C768.311 110.348 751.889 93.7633 731.53 93.4994L731.465 98.499ZM763.301 61.2296C763.301 78.9078 749.087 93.2664 731.465 93.4994L731.531 98.499C751.885 98.2298 768.301 81.6471 768.301 61.2296H763.301ZM763.301 5.59604V61.2296H768.301V5.59604H763.301ZM709.764 8.09604H765.801V3.09604H709.764V8.09604ZM677.494 39.9136C677.737 22.3001 692.092 8.09604 709.764 8.09604V3.09604C689.354 3.09604 672.775 19.5007 672.495 39.8446L677.494 39.9136ZM640.225 8.09521C657.897 8.09521 672.252 22.2997 672.495 39.9135L677.494 39.8447C677.214 19.5003 660.636 3.09521 640.225 3.09521V8.09521Z" fill="#AB87FF" mask="url(#path-25-inside-13_45_2659)"/>
<mask id="path-27-inside-14_45_2659" fill="white">
<path fill-rule="evenodd" clip-rule="evenodd" d="M640.225 5.5957H584.188V61.2293C584.188 80.2982 599.537 95.7821 618.554 95.9996C599.542 96.2226 584.198 111.704 584.198 130.77L584.198 186.403H640.235C659.265 186.403 674.725 171.117 675.004 152.153C675.284 171.117 690.743 186.403 709.773 186.403H765.811V130.769C765.811 111.718 750.49 96.2457 731.497 95.9997C750.486 95.7488 765.801 80.278 765.801 61.2301V5.59653H709.764C690.723 5.59653 675.256 20.9009 674.994 39.8796C674.733 20.9005 659.266 5.5957 640.225 5.5957Z"/>
</mask>
<path d="M584.188 5.5957V3.0957H581.688V5.5957H584.188ZM618.554 95.9996L618.584 98.4995L618.583 93.4998L618.554 95.9996ZM584.198 130.77H581.698H584.198ZM584.198 186.403H581.698L581.698 188.903H584.198V186.403ZM675.004 152.154L677.504 152.117L672.504 152.117L675.004 152.154ZM765.811 186.403V188.903H768.311V186.403H765.811ZM731.498 95.9997L731.465 93.4999L731.465 98.4995L731.498 95.9997ZM765.801 5.59653H768.301V3.09653H765.801V5.59653ZM674.994 39.8796L672.495 39.914L677.494 39.9141L674.994 39.8796ZM584.188 8.0957H640.225V3.0957H584.188V8.0957ZM586.688 61.2293V5.5957H581.688V61.2293H586.688ZM618.583 93.4998C600.933 93.2979 586.688 78.9271 586.688 61.2293H581.688C581.688 81.6694 598.14 98.2663 618.526 98.4995L618.583 93.4998ZM618.525 93.4998C598.145 93.7388 581.698 110.333 581.698 130.77H586.698C586.698 113.075 600.938 98.7064 618.584 98.4995L618.525 93.4998ZM581.698 130.77L581.698 186.403H586.698L586.698 130.77H581.698ZM584.198 188.903H640.235V183.903H584.198V188.903ZM640.235 188.903C660.634 188.903 677.204 172.518 677.504 152.191L672.504 152.117C672.245 169.716 657.897 183.903 640.235 183.903V188.903ZM709.773 183.903C692.112 183.903 677.764 169.716 677.504 152.117L672.504 152.191C672.804 172.518 689.375 188.903 709.773 188.903V183.903ZM765.811 183.903H709.773V188.903H765.811V183.903ZM763.311 130.769V186.403H768.311V130.769H763.311ZM731.465 98.4995C749.092 98.7279 763.311 113.088 763.311 130.769H768.311C768.311 110.349 751.889 93.7637 731.53 93.4999L731.465 98.4995ZM763.301 61.2301C763.301 78.9083 749.087 93.2669 731.465 93.4999L731.531 98.4995C751.885 98.2303 768.301 81.6475 768.301 61.2301H763.301ZM763.301 5.59653V61.2301H768.301V5.59653H763.301ZM709.764 8.09653H765.801V3.09653H709.764V8.09653ZM677.494 39.9141C677.737 22.3006 692.092 8.09653 709.764 8.09653V3.09653C689.354 3.09653 672.775 19.5011 672.495 39.8451L677.494 39.9141ZM640.225 8.0957C657.897 8.0957 672.252 22.3002 672.495 39.914L677.494 39.8451C677.214 19.5008 660.636 3.0957 640.225 3.0957V8.0957Z" fill="#AB87FF" mask="url(#path-27-inside-14_45_2659)"/>
<mask id="path-29-inside-15_45_2659" fill="white">
<path fill-rule="evenodd" clip-rule="evenodd" d="M602.143 72.5342L578.571 96.0012L602.143 119.468C615.682 132.947 637.588 133.017 651.214 119.68C637.822 133.246 637.895 155.051 651.432 168.528L675.003 191.995L698.575 168.528C712.082 155.081 712.184 133.342 698.882 119.77C712.514 133.013 734.35 132.911 747.856 119.465L771.428 95.9978L747.856 72.5308C734.338 59.073 712.478 58.9822 698.848 72.2581C712.179 58.6878 712.086 36.9283 698.569 23.4721L674.998 0.0051137L651.426 23.4721C637.915 36.9224 637.817 58.6688 651.13 72.2403C637.498 58.9857 615.654 59.0837 602.143 72.5342Z"/>
</mask>
<path d="M578.571 96.0012L576.8 94.2374L575.028 96.0012L576.8 97.765L578.571 96.0012ZM651.214 119.68L653.001 121.429L649.457 117.902L651.214 119.68ZM651.432 168.528L653.203 166.764L651.432 168.528ZM675.003 191.995L673.232 193.759L675.003 195.522L676.775 193.759L675.003 191.995ZM698.882 119.77L700.631 117.985L697.088 121.512L698.882 119.77ZM747.856 119.465L746.085 117.701L747.856 119.465ZM771.428 95.9978L773.2 97.7616L774.972 95.9978L773.2 94.2339L771.428 95.9978ZM698.848 72.2581L697.056 70.514L700.6 74.0411L698.848 72.2581ZM674.998 0.0051137L676.769 -1.75871L674.998 -3.52253L673.226 -1.75871L674.998 0.0051137ZM651.426 23.4721L653.197 25.2359L651.426 23.4721ZM651.13 72.2403L649.379 74.0248L652.922 70.4974L651.13 72.2403ZM580.343 97.765L603.915 74.2981L600.371 70.7704L576.8 94.2374L580.343 97.765ZM603.915 117.704L580.343 94.2374L576.8 97.765L600.371 121.232L603.915 117.704ZM649.457 117.902C636.811 130.279 616.48 130.213 603.915 117.704L600.371 121.232C614.883 135.679 638.364 135.755 652.97 121.459L649.457 117.902ZM649.427 117.932C635.072 132.473 635.15 155.846 649.66 170.292L653.203 166.764C640.64 154.256 640.572 134.019 653.001 121.429L649.427 117.932ZM649.66 170.292L673.232 193.759L676.775 190.231L653.203 166.764L649.66 170.292ZM676.775 193.759L700.347 170.292L696.804 166.764L673.232 190.231L676.775 193.759ZM700.347 170.292C714.825 155.878 714.934 132.577 700.675 118.028L697.088 121.512C709.434 134.108 709.339 154.284 696.804 166.764L700.347 170.292ZM746.085 117.701C733.549 130.181 713.284 130.275 700.631 117.985L697.132 121.556C711.745 135.751 735.15 135.642 749.628 121.229L746.085 117.701ZM769.657 94.2339L746.085 117.701L749.628 121.229L773.2 97.7616L769.657 94.2339ZM746.085 74.2946L769.657 97.7616L773.2 94.2339L749.628 70.7669L746.085 74.2946ZM700.6 74.0411C713.25 61.7201 733.539 61.8045 746.085 74.2946L749.628 70.7669C735.138 56.3415 711.707 56.2442 697.096 70.4751L700.6 74.0411ZM696.798 25.2359C709.342 37.7246 709.428 57.9198 697.056 70.514L700.639 74.0022C714.929 59.4558 714.829 36.1321 700.341 21.7083L696.798 25.2359ZM673.226 1.76894L696.798 25.2359L700.341 21.7083L676.769 -1.75871L673.226 1.76894ZM653.197 25.2359L676.769 1.76894L673.226 -1.75871L649.654 21.7083L653.197 25.2359ZM652.922 70.4974C640.567 57.9021 640.658 37.7191 653.197 25.2359L649.654 21.7083C635.172 36.1258 635.066 59.4354 649.337 73.9831L652.922 70.4974ZM603.915 74.2981C616.454 61.8147 636.728 61.7236 649.379 74.0248L652.88 70.4557C638.268 56.2478 614.854 56.3527 600.371 70.7704L603.915 74.2981Z" fill="#AB87FF" mask="url(#path-29-inside-15_45_2659)"/>
<mask id="path-31-inside-16_45_2659" fill="white">
<path fill-rule="evenodd" clip-rule="evenodd" d="M625.416 95.7039L625.118 96.0007L625.416 96.2975C638.97 109.791 660.911 109.847 674.534 96.4636C661.094 110.026 661.15 131.867 674.703 145.36L675.001 145.657L675.3 145.36C688.824 131.896 688.909 110.119 675.555 96.5506C689.184 109.845 711.058 109.76 724.582 96.2961L724.88 95.9993L724.582 95.7025C711.044 82.2246 689.139 82.1536 675.513 95.4895C688.906 81.9237 688.834 60.1173 675.297 46.6401L674.999 46.3433L674.7 46.6401C661.163 60.1172 661.091 81.9233 674.484 95.4891C660.858 82.155 638.954 82.2266 625.416 95.7039Z"/>
</mask>
<path d="M625.118 96.0007L623.346 94.2369L621.575 96.0007L623.346 97.7646L625.118 96.0007ZM625.416 96.2975L627.188 94.5337L625.416 96.2975ZM674.534 96.4636L676.317 98.2155L672.774 94.6881L674.534 96.4636ZM674.703 145.36L676.475 143.596L674.703 145.36ZM675.001 145.657L673.23 147.421L675.001 149.184L676.773 147.421L675.001 145.657ZM675.555 96.5508L677.309 94.769L673.765 98.2965L675.555 96.5508ZM724.582 96.2961L722.811 94.5323L724.582 96.2961ZM724.88 95.9993L726.652 97.7631L728.424 95.9993L726.652 94.2355L724.88 95.9993ZM724.582 95.7025L722.811 97.4663L724.582 95.7025ZM675.513 95.4893L673.726 93.7408L677.269 97.2681L675.513 95.4893ZM675.297 46.6401L673.525 48.4039L675.297 46.6401ZM674.999 46.3433L676.77 44.5794L674.999 42.8156L673.227 44.5794L674.999 46.3433ZM674.7 46.6401L672.929 44.8763L674.7 46.6401ZM674.484 95.4891L672.728 97.2681L676.271 93.7406L674.484 95.4891ZM626.89 97.7646L627.188 97.4677L623.645 93.9401L623.346 94.2369L626.89 97.7646ZM627.188 94.5337L626.89 94.2369L623.346 97.7646L623.645 98.0614L627.188 94.5337ZM672.774 94.6881C660.131 107.109 639.767 107.057 627.188 94.5337L623.645 98.0614C638.173 112.525 661.691 112.585 676.294 98.2391L672.774 94.6881ZM672.75 94.7117C658.344 109.249 658.404 132.661 672.932 147.124L676.475 143.596C663.896 131.073 663.844 110.802 676.317 98.2155L672.75 94.7117ZM672.932 147.124L673.23 147.421L676.773 143.893L676.475 143.596L672.932 147.124ZM676.773 147.421L677.071 147.124L673.528 143.596L673.23 143.893L676.773 147.421ZM677.071 147.124C691.568 132.692 691.659 109.35 677.345 94.805L673.765 98.2965C686.159 110.889 686.08 131.1 673.528 143.596L677.071 147.124ZM722.811 94.5323C710.259 107.028 689.958 107.107 677.309 94.769L673.802 98.3325C688.411 112.583 711.858 112.492 726.354 98.06L722.811 94.5323ZM723.109 94.2355L722.811 94.5323L726.354 98.06L726.652 97.7631L723.109 94.2355ZM722.811 97.4663L723.109 97.7631L726.652 94.2355L726.354 93.9387L722.811 97.4663ZM677.269 97.2681C689.916 84.8916 710.246 84.9576 722.811 97.4663L726.354 93.9387C711.842 79.4918 688.363 79.4157 673.756 93.7105L677.269 97.2681ZM673.525 48.4039C686.089 60.912 686.156 81.1506 673.726 93.7408L677.3 97.2379C691.656 82.6964 691.579 59.3225 677.068 44.8762L673.525 48.4039ZM673.227 48.1071L673.525 48.4039L677.068 44.8762L676.77 44.5794L673.227 48.1071ZM676.472 48.4039L676.77 48.1071L673.227 44.5794L672.929 44.8763L676.472 48.4039ZM676.271 93.7406C663.841 81.1504 663.908 60.912 676.472 48.4039L672.929 44.8763C658.418 59.3224 658.341 82.6962 672.697 97.2377L676.271 93.7406ZM627.188 97.4677C639.752 84.9595 660.081 84.893 672.728 97.2681L676.241 93.7102C661.634 79.4171 638.155 79.4938 623.645 93.9401L627.188 97.4677Z" fill="#AB87FF" mask="url(#path-31-inside-16_45_2659)"/>
<mask id="path-33-inside-17_45_2659" fill="white">
<path fill-rule="evenodd" clip-rule="evenodd" d="M1218.8 5.59521H1162.76V61.2288C1162.76 80.2977 1178.11 95.7815 1197.13 95.9991C1178.11 96.222 1162.77 111.704 1162.77 130.769L1162.77 186.403H1218.81C1237.84 186.403 1253.31 171.107 1253.58 152.136C1253.85 171.107 1269.31 186.402 1288.35 186.402H1344.38V130.769C1344.38 111.718 1329.06 96.2452 1310.07 95.9992C1329.06 95.7483 1344.37 80.2775 1344.37 61.2296V5.59604H1288.34C1269.3 5.59604 1253.83 20.8998 1253.57 39.878C1253.3 20.8994 1237.84 5.59521 1218.8 5.59521Z"/>
</mask>
<path d="M1162.76 5.59521V3.09521H1160.26V5.59521H1162.76ZM1197.13 95.9991L1197.16 98.499L1197.15 93.4993L1197.13 95.9991ZM1162.77 130.769H1160.27H1162.77ZM1162.77 186.403H1160.27L1160.27 188.903H1162.77V186.403ZM1253.58 152.136L1256.08 152.101L1251.08 152.101L1253.58 152.136ZM1344.38 186.402V188.902H1346.88V186.402H1344.38ZM1310.07 95.9992L1310.04 93.4994L1310.04 98.499L1310.07 95.9992ZM1344.37 5.59604H1346.87V3.09604H1344.37V5.59604ZM1253.57 39.878L1251.07 39.9125L1256.07 39.9126L1253.57 39.878ZM1162.76 8.09521H1218.8V3.09521H1162.76V8.09521ZM1165.26 61.2288V5.59521H1160.26V61.2288H1165.26ZM1197.15 93.4993C1179.51 93.2973 1165.26 78.9265 1165.26 61.2288H1160.26C1160.26 81.6688 1176.71 98.2657 1197.1 98.499L1197.15 93.4993ZM1197.1 93.4993C1176.72 93.7382 1160.27 110.333 1160.27 130.769H1165.27C1165.27 113.075 1179.51 98.7058 1197.16 98.499L1197.1 93.4993ZM1160.27 130.769L1160.27 186.403H1165.27L1165.27 130.769H1160.27ZM1162.77 188.903H1218.81V183.903H1162.77V188.903ZM1218.81 188.903C1239.21 188.903 1255.79 172.508 1256.08 152.172L1251.08 152.101C1250.83 169.707 1236.47 183.903 1218.81 183.903V188.903ZM1288.35 183.902C1270.68 183.902 1256.33 169.707 1256.08 152.101L1251.08 152.172C1251.37 172.508 1267.94 188.902 1288.35 188.902V183.902ZM1344.38 183.902H1288.35V188.902H1344.38V183.902ZM1341.88 130.769V186.402H1346.88V130.769H1341.88ZM1310.04 98.499C1327.66 98.7274 1341.88 113.088 1341.88 130.769H1346.88C1346.88 110.348 1330.46 93.7632 1310.1 93.4994L1310.04 98.499ZM1341.87 61.2296C1341.87 78.9078 1327.66 93.2664 1310.04 93.4994L1310.1 98.499C1330.46 98.2298 1346.87 81.647 1346.87 61.2296H1341.87ZM1341.87 5.59604V61.2296H1346.87V5.59604H1341.87ZM1288.34 8.09604H1344.37V3.09604H1288.34V8.09604ZM1256.07 39.9126C1256.31 22.2996 1270.66 8.09604 1288.34 8.09604V3.09604C1267.93 3.09604 1251.35 19.5 1251.07 39.8434L1256.07 39.9126ZM1218.8 8.09521C1236.47 8.09521 1250.82 22.2992 1251.07 39.9125L1256.07 39.8435C1255.79 19.4997 1239.21 3.09521 1218.8 3.09521V8.09521Z" fill="#AB87FF" mask="url(#path-33-inside-17_45_2659)"/>
<mask id="path-35-inside-18_45_2659" fill="white">
<path fill-rule="evenodd" clip-rule="evenodd" d="M1218.8 5.5957H1162.76V61.2293C1162.76 80.2981 1178.11 95.782 1197.13 95.9996C1178.11 96.2224 1162.77 111.704 1162.77 130.77L1162.77 186.403H1218.81C1237.84 186.403 1253.31 171.108 1253.58 152.137C1253.85 171.108 1269.31 186.403 1288.35 186.403H1344.38V130.769C1344.38 111.718 1329.06 96.2457 1310.07 95.9997C1329.06 95.7487 1344.37 80.278 1344.37 61.2301V5.59653H1288.34C1269.3 5.59653 1253.83 20.9003 1253.57 39.8785C1253.3 20.8999 1237.84 5.5957 1218.8 5.5957Z"/>
</mask>
<path d="M1162.76 5.5957V3.0957H1160.26V5.5957H1162.76ZM1197.13 95.9996L1197.16 98.4995L1197.15 93.4998L1197.13 95.9996ZM1162.77 130.77H1160.27H1162.77ZM1162.77 186.403H1160.27L1160.27 188.903H1162.77V186.403ZM1253.58 152.137L1256.08 152.101L1251.08 152.101L1253.58 152.137ZM1344.38 186.403V188.903H1346.88V186.403H1344.38ZM1310.07 95.9997L1310.04 93.4999L1310.04 98.4995L1310.07 95.9997ZM1344.37 5.59653H1346.87V3.09653H1344.37V5.59653ZM1253.57 39.8785L1251.07 39.913L1256.07 39.9131L1253.57 39.8785ZM1162.76 8.0957H1218.8V3.0957H1162.76V8.0957ZM1165.26 61.2293V5.5957H1160.26V61.2293H1165.26ZM1197.15 93.4998C1179.51 93.2978 1165.26 78.927 1165.26 61.2293H1160.26C1160.26 81.6693 1176.71 98.2662 1197.1 98.4995L1197.15 93.4998ZM1197.1 93.4998C1176.72 93.7386 1160.27 110.333 1160.27 130.77H1165.27C1165.27 113.075 1179.51 98.7062 1197.16 98.4995L1197.1 93.4998ZM1160.27 130.77L1160.27 186.403H1165.27L1165.27 130.77H1160.27ZM1162.77 188.903H1218.81V183.903H1162.77V188.903ZM1218.81 188.903C1239.21 188.903 1255.79 172.508 1256.08 152.173L1251.08 152.101C1250.83 169.708 1236.47 183.903 1218.81 183.903V188.903ZM1288.35 183.903C1270.68 183.903 1256.33 169.707 1256.08 152.101L1251.08 152.173C1251.37 172.508 1267.94 188.903 1288.35 188.903V183.903ZM1344.38 183.903H1288.35V188.903H1344.38V183.903ZM1341.88 130.769V186.403H1346.88V130.769H1341.88ZM1310.04 98.4995C1327.66 98.7279 1341.88 113.088 1341.88 130.769H1346.88C1346.88 110.349 1330.46 93.7637 1310.1 93.4999L1310.04 98.4995ZM1341.87 61.2301C1341.87 78.9083 1327.66 93.2669 1310.04 93.4999L1310.1 98.4995C1330.46 98.2303 1346.87 81.6475 1346.87 61.2301H1341.87ZM1341.87 5.59653V61.2301H1346.87V5.59653H1341.87ZM1288.34 8.09653H1344.37V3.09653H1288.34V8.09653ZM1256.07 39.9131C1256.31 22.3001 1270.66 8.09653 1288.34 8.09653V3.09653C1267.93 3.09653 1251.35 19.5005 1251.07 39.8439L1256.07 39.9131ZM1218.8 8.0957C1236.47 8.0957 1250.82 22.2996 1251.07 39.913L1256.07 39.844C1255.79 19.5002 1239.21 3.0957 1218.8 3.0957V8.0957Z" fill="#AB87FF" mask="url(#path-35-inside-18_45_2659)"/>
<mask id="path-37-inside-19_45_2659" fill="white">
<path fill-rule="evenodd" clip-rule="evenodd" d="M1180.71 72.5342L1157.14 96.0012L1180.71 119.468C1194.25 132.947 1216.16 133.017 1229.79 119.68C1216.39 133.246 1216.47 155.051 1230 168.528L1253.57 191.995L1277.15 168.528C1290.65 155.081 1290.76 133.342 1277.45 119.77C1291.09 133.013 1312.92 132.911 1326.43 119.465L1350 95.9978L1326.43 72.5308C1312.91 59.073 1291.05 58.9822 1277.42 72.2581C1290.75 58.6878 1290.66 36.9283 1277.14 23.4721L1253.57 0.0051137L1230 23.4721C1216.49 36.9224 1216.39 58.6688 1229.7 72.2403C1216.07 58.9857 1194.23 59.0837 1180.71 72.5342Z"/>
</mask>
<path d="M1157.14 96.0012L1155.37 94.2374L1153.6 96.0012L1155.37 97.765L1157.14 96.0012ZM1229.79 119.68L1231.57 121.429L1228.03 117.902L1229.79 119.68ZM1230 168.528L1231.77 166.764L1230 168.528ZM1253.57 191.995L1251.8 193.759L1253.57 195.522L1255.35 193.759L1253.57 191.995ZM1277.45 119.77L1279.2 117.985L1275.66 121.512L1277.45 119.77ZM1326.43 119.465L1324.66 117.701L1326.43 119.465ZM1350 95.9978L1351.77 97.7616L1353.54 95.9978L1351.77 94.2339L1350 95.9978ZM1326.43 72.5308L1328.2 70.7669L1326.43 72.5308ZM1277.42 72.2581L1275.63 70.514L1279.17 74.0411L1277.42 72.2581ZM1253.57 0.0051137L1255.34 -1.75871L1253.57 -3.52253L1251.8 -1.75871L1253.57 0.0051137ZM1230 23.4721L1231.77 25.2359L1230 23.4721ZM1229.7 72.2403L1227.95 74.0248L1231.49 70.4974L1229.7 72.2403ZM1158.91 97.765L1182.49 74.2981L1178.94 70.7704L1155.37 94.2374L1158.91 97.765ZM1182.49 117.704L1158.91 94.2374L1155.37 97.765L1178.94 121.232L1182.49 117.704ZM1228.03 117.902C1215.38 130.279 1195.05 130.213 1182.49 117.704L1178.94 121.232C1193.45 135.679 1216.94 135.755 1231.54 121.459L1228.03 117.902ZM1228 117.932C1213.64 132.473 1213.72 155.846 1228.23 170.292L1231.77 166.764C1219.21 154.256 1219.14 134.019 1231.57 121.429L1228 117.932ZM1228.23 170.292L1251.8 193.759L1255.35 190.231L1231.77 166.764L1228.23 170.292ZM1255.35 193.759L1278.92 170.292L1275.37 166.764L1251.8 190.231L1255.35 193.759ZM1278.92 170.292C1293.4 155.878 1293.51 132.577 1279.25 118.028L1275.66 121.512C1288.01 134.108 1287.91 154.284 1275.37 166.764L1278.92 170.292ZM1324.66 117.701C1312.12 130.181 1291.85 130.275 1279.2 117.985L1275.7 121.556C1290.32 135.751 1313.72 135.642 1328.2 121.229L1324.66 117.701ZM1348.23 94.2339L1324.66 117.701L1328.2 121.229L1351.77 97.7616L1348.23 94.2339ZM1324.66 74.2946L1348.23 97.7616L1351.77 94.2339L1328.2 70.7669L1324.66 74.2946ZM1279.17 74.0411C1291.82 61.7201 1312.11 61.8045 1324.66 74.2946L1328.2 70.7669C1313.71 56.3415 1290.28 56.2442 1275.67 70.4751L1279.17 74.0411ZM1275.37 25.2359C1287.91 37.7246 1288 57.9198 1275.63 70.514L1279.21 74.0022C1293.5 59.4558 1293.4 36.1321 1278.91 21.7083L1275.37 25.2359ZM1251.8 1.76894L1275.37 25.2359L1278.91 21.7083L1255.34 -1.75871L1251.8 1.76894ZM1231.77 25.2359L1255.34 1.76894L1251.8 -1.75871L1228.23 21.7083L1231.77 25.2359ZM1231.49 70.4974C1219.14 57.9021 1219.23 37.7191 1231.77 25.2359L1228.23 21.7083C1213.74 36.1258 1213.64 59.4354 1227.91 73.9831L1231.49 70.4974ZM1182.49 74.2981C1195.03 61.8147 1215.3 61.7236 1227.95 74.0248L1231.45 70.4557C1216.84 56.2478 1193.42 56.3527 1178.94 70.7704L1182.49 74.2981Z" fill="#AB87FF" mask="url(#path-37-inside-19_45_2659)"/>
<mask id="path-39-inside-20_45_2659" fill="white">
<path fill-rule="evenodd" clip-rule="evenodd" d="M1203.99 95.7039L1203.69 96.0007L1203.99 96.2975C1217.54 109.785 1239.46 109.847 1253.09 96.4807C1239.67 110.044 1239.73 131.872 1253.27 145.359L1253.57 145.656L1253.87 145.359C1267.4 131.895 1267.48 110.119 1254.13 96.5501C1267.76 109.844 1289.63 109.76 1303.15 96.2956L1303.45 95.9988L1303.15 95.702C1289.62 82.2286 1267.72 82.1532 1254.1 95.4756C1267.48 81.9089 1267.4 60.1127 1253.87 46.6401L1253.57 46.3433L1253.27 46.6401C1239.73 60.1172 1239.66 81.9233 1253.06 95.4891C1239.43 82.155 1217.53 82.2266 1203.99 95.7039Z"/>
</mask>
<path d="M1203.69 96.0007L1201.92 94.2369L1200.15 96.0007L1201.92 97.7646L1203.69 96.0007ZM1253.09 96.4807L1254.87 98.2313L1251.33 94.704L1253.09 96.4807ZM1253.27 145.359L1255.05 143.596L1253.27 145.359ZM1253.57 145.656L1251.8 147.42L1253.57 149.184L1255.34 147.42L1253.57 145.656ZM1254.13 96.5501L1255.88 94.7684L1252.34 98.2959L1254.13 96.5501ZM1303.15 96.2956L1301.38 94.5318L1303.15 96.2956ZM1303.45 95.9988L1305.22 97.7627L1307 95.9988L1305.22 94.235L1303.45 95.9988ZM1254.1 95.4755L1252.31 93.7279L1255.85 97.2553L1254.1 95.4755ZM1253.87 46.6401L1252.1 48.4039L1253.87 46.6401ZM1253.57 46.3433L1255.34 44.5794L1253.57 42.8156L1251.8 44.5794L1253.57 46.3433ZM1253.27 46.6401L1251.5 44.8763L1253.27 46.6401ZM1253.06 95.4891L1251.3 97.2681L1254.84 93.7406L1253.06 95.4891ZM1205.46 97.7646L1205.76 97.4677L1202.22 93.9401L1201.92 94.2369L1205.46 97.7646ZM1205.76 94.5337L1205.46 94.2369L1201.92 97.7646L1202.22 98.0614L1205.76 94.5337ZM1251.33 94.704C1238.68 107.109 1218.33 107.052 1205.76 94.5337L1202.22 98.0614C1216.74 112.519 1240.24 112.584 1254.85 98.2574L1251.33 94.704ZM1251.3 94.7301C1236.91 109.269 1236.98 132.667 1251.5 147.123L1255.05 143.596C1242.47 131.078 1242.42 110.82 1254.87 98.2313L1251.3 94.7301ZM1251.5 147.123L1251.8 147.42L1255.34 143.892L1255.05 143.596L1251.5 147.123ZM1255.34 147.42L1255.64 147.123L1252.1 143.596L1251.8 143.892L1255.34 147.42ZM1255.64 147.123C1270.14 132.691 1270.23 109.349 1255.92 94.8044L1252.34 98.2959C1264.73 110.889 1264.65 131.1 1252.1 143.596L1255.64 147.123ZM1301.38 94.5318C1288.83 107.028 1268.53 107.106 1255.88 94.7684L1252.37 98.3319C1266.98 112.582 1290.43 112.491 1304.93 98.0595L1301.38 94.5318ZM1301.68 94.235L1301.38 94.5318L1304.93 98.0595L1305.22 97.7627L1301.68 94.235ZM1301.38 97.4658L1301.68 97.7627L1305.22 94.235L1304.93 93.9382L1301.38 97.4658ZM1255.85 97.2553C1268.5 84.8911 1288.82 84.9613 1301.38 97.4658L1304.93 93.9382C1290.42 79.4961 1266.95 79.4152 1252.34 93.6957L1255.85 97.2553ZM1252.1 48.4039C1264.66 60.9078 1264.73 81.1369 1252.31 93.7279L1255.89 97.2231C1270.23 82.6805 1270.15 59.3176 1255.64 44.8762L1252.1 48.4039ZM1251.8 48.1071L1252.1 48.4039L1255.64 44.8762L1255.34 44.5794L1251.8 48.1071ZM1255.04 48.4039L1255.34 48.1071L1251.8 44.5794L1251.5 44.8763L1255.04 48.4039ZM1254.84 93.7406C1242.41 81.1504 1242.48 60.912 1255.04 48.4039L1251.5 44.8763C1236.99 59.3224 1236.91 82.6962 1251.27 97.2377L1254.84 93.7406ZM1205.76 97.4677C1218.32 84.9595 1238.65 84.893 1251.3 97.2681L1254.81 93.7102C1240.21 79.4171 1216.73 79.4938 1202.22 93.9401L1205.76 97.4677Z" fill="#AB87FF" mask="url(#path-39-inside-20_45_2659)"/>
<mask id="path-41-inside-21_45_2659" fill="white">
<path fill-rule="evenodd" clip-rule="evenodd" d="M254.511 5.59521H198.474V61.2288C198.474 80.2977 213.823 95.7815 232.84 95.9991C213.827 96.222 198.483 111.704 198.483 130.769L198.483 186.403H254.521C273.557 186.403 289.02 171.107 289.29 152.136C289.561 171.107 305.024 186.402 324.059 186.402H380.097V130.769C380.097 111.718 364.776 96.2451 345.784 95.9992C364.772 95.7482 380.087 80.2775 380.087 61.2296V5.59604H324.05C305.01 5.59604 289.545 20.8977 289.28 39.8741C289.016 20.8973 273.551 5.59521 254.511 5.59521Z"/>
</mask>
<path d="M198.474 5.59521V3.09521H195.974V5.59521H198.474ZM232.84 95.9991L232.869 98.499L232.869 93.4993L232.84 95.9991ZM198.483 130.769H195.983H198.483ZM198.483 186.403H195.983L195.983 188.903H198.483V186.403ZM289.29 152.136L291.79 152.101L286.79 152.101L289.29 152.136ZM380.097 186.402V188.902H382.597V186.402H380.097ZM345.784 95.9992L345.751 93.4994L345.751 98.499L345.784 95.9992ZM380.087 5.59604H382.587V3.09604H380.087V5.59604ZM289.28 39.8741L286.781 39.9089L291.78 39.909L289.28 39.8741ZM198.474 8.09521H254.511V3.09521H198.474V8.09521ZM200.974 61.2288V5.59521H195.974V61.2288H200.974ZM232.869 93.4993C215.219 93.2973 200.974 78.9265 200.974 61.2288H195.974C195.974 81.6688 212.426 98.2657 232.812 98.499L232.869 93.4993ZM232.811 93.4993C212.43 93.7382 195.983 110.333 195.983 130.769H200.983C200.983 113.075 215.224 98.7058 232.869 98.499L232.811 93.4993ZM195.983 130.769L195.983 186.403H200.983L200.983 130.769H195.983ZM198.483 188.903H254.521V183.903H198.483V188.903ZM254.521 188.903C274.925 188.903 291.5 172.508 291.79 152.172L286.79 152.101C286.539 169.707 272.188 183.903 254.521 183.903V188.903ZM324.059 183.902C306.393 183.902 292.041 169.707 291.79 152.101L286.79 152.172C287.081 172.508 303.655 188.902 324.059 188.902V183.902ZM380.097 183.902H324.059V188.902H380.097V183.902ZM377.597 130.769V186.402H382.597V130.769H377.597ZM345.751 98.499C363.378 98.7274 377.597 113.088 377.597 130.769H382.597C382.597 110.348 366.175 93.7632 345.816 93.4994L345.751 98.499ZM377.587 61.2296C377.587 78.9078 363.373 93.2664 345.751 93.4994L345.817 98.499C366.171 98.2298 382.587 81.647 382.587 61.2296H377.587ZM377.587 5.59604V61.2296H382.587V5.59604H377.587ZM324.05 8.09604H380.087V3.09604H324.05V8.09604ZM291.78 39.909C292.026 22.2976 306.379 8.09604 324.05 8.09604V3.09604C303.641 3.09604 287.064 19.4978 286.781 39.8393L291.78 39.909ZM254.511 8.09521C272.182 8.09521 286.536 22.2972 286.781 39.9089L291.78 39.8394C291.497 19.4975 274.92 3.09521 254.511 3.09521V8.09521Z" fill="#AB87FF" mask="url(#path-41-inside-21_45_2659)"/>
<mask id="path-43-inside-22_45_2659" fill="white">
<path fill-rule="evenodd" clip-rule="evenodd" d="M254.511 5.5957H198.474V61.2293C198.474 80.2981 213.823 95.782 232.84 95.9996C213.827 96.2224 198.483 111.704 198.483 130.77L198.483 186.403H254.521C273.557 186.403 289.02 171.108 289.29 152.137C289.561 171.108 305.024 186.403 324.059 186.403H380.097V130.769C380.097 111.718 364.776 96.2456 345.784 95.9997C364.772 95.7487 380.087 80.278 380.087 61.2301V5.59653H324.05C305.01 5.59653 289.545 20.8982 289.28 39.8746C289.016 20.8978 273.551 5.5957 254.511 5.5957Z"/>
</mask>
<path d="M198.474 5.5957V3.0957H195.974V5.5957H198.474ZM232.84 95.9996L232.869 98.4995L232.869 93.4998L232.84 95.9996ZM198.483 130.77H195.983H198.483ZM198.483 186.403H195.983L195.983 188.903H198.483V186.403ZM289.29 152.137L291.79 152.101L286.79 152.101L289.29 152.137ZM380.097 186.403V188.903H382.597V186.403H380.097ZM345.784 95.9997L345.751 93.4999L345.751 98.4995L345.784 95.9997ZM380.087 5.59653H382.587V3.09653H380.087V5.59653ZM289.28 39.8746L286.781 39.9094L291.78 39.9095L289.28 39.8746ZM198.474 8.0957H254.511V3.0957H198.474V8.0957ZM200.974 61.2293V5.5957H195.974V61.2293H200.974ZM232.869 93.4998C215.219 93.2978 200.974 78.927 200.974 61.2293H195.974C195.974 81.6693 212.426 98.2662 232.812 98.4995L232.869 93.4998ZM232.811 93.4998C212.43 93.7386 195.983 110.333 195.983 130.77H200.983C200.983 113.075 215.224 98.7062 232.869 98.4995L232.811 93.4998ZM195.983 130.77L195.983 186.403H200.983L200.983 130.77H195.983ZM198.483 188.903H254.521V183.903H198.483V188.903ZM254.521 188.903C274.925 188.903 291.5 172.508 291.79 152.173L286.79 152.101C286.539 169.708 272.188 183.903 254.521 183.903V188.903ZM324.059 183.903C306.393 183.903 292.041 169.707 291.79 152.101L286.79 152.173C287.081 172.508 303.655 188.903 324.059 188.903V183.903ZM380.097 183.903H324.059V188.903H380.097V183.903ZM377.597 130.769V186.403H382.597V130.769H377.597ZM345.751 98.4995C363.378 98.7279 377.597 113.088 377.597 130.769H382.597C382.597 110.349 366.175 93.7637 345.816 93.4999L345.751 98.4995ZM377.587 61.2301C377.587 78.9082 363.373 93.2669 345.751 93.4999L345.817 98.4995C366.171 98.2303 382.587 81.6475 382.587 61.2301H377.587ZM377.587 5.59653V61.2301H382.587V5.59653H377.587ZM324.05 8.09653H380.087V3.09653H324.05V8.09653ZM291.78 39.9095C292.026 22.2981 306.379 8.09653 324.05 8.09653V3.09653C303.641 3.09653 287.064 19.4983 286.781 39.8398L291.78 39.9095ZM254.511 8.0957C272.182 8.0957 286.536 22.2977 286.781 39.9094L291.78 39.8398C291.497 19.4979 274.92 3.0957 254.511 3.0957V8.0957Z" fill="#AB87FF" mask="url(#path-43-inside-22_45_2659)"/>
<mask id="path-45-inside-23_45_2659" fill="white">
<path fill-rule="evenodd" clip-rule="evenodd" d="M216.429 72.5342L192.857 96.0012L216.429 119.468C229.959 132.937 251.845 133.017 265.473 119.707C252.107 133.275 252.189 155.06 265.717 168.528L289.289 191.995L312.86 168.528C326.371 155.078 326.47 133.331 313.157 119.76C326.789 133.013 348.632 132.915 362.142 119.465L385.714 95.9977L362.142 72.5308C348.624 59.073 326.764 58.9822 313.133 72.2581C326.464 58.6878 326.371 36.9283 312.855 23.4721L289.283 0.00511825L265.711 23.4721C252.204 36.9191 252.102 58.6579 265.405 72.23C251.773 58.9857 229.936 59.0872 216.429 72.5342Z"/>
</mask>
<path d="M192.857 96.0012L191.086 94.2374L189.314 96.0012L191.086 97.765L192.857 96.0012ZM265.473 119.707L267.261 121.454L263.718 117.926L265.473 119.707ZM265.717 168.528L267.488 166.764L265.717 168.528ZM289.289 191.995L287.517 193.759L289.289 195.522L291.06 193.759L289.289 191.995ZM312.86 168.528L314.632 170.292L312.86 168.528ZM313.157 119.76L314.907 117.975L311.364 121.503L313.157 119.76ZM385.714 95.9977L387.486 97.7616L389.257 95.9977L387.486 94.2339L385.714 95.9977ZM313.133 72.2581L311.342 70.514L314.886 74.0411L313.133 72.2581ZM312.855 23.4721L311.083 25.2359L312.855 23.4721ZM289.283 0.00511825L291.055 -1.7587L289.283 -3.52252L287.511 -1.7587L289.283 0.00511825ZM265.711 23.4721L267.483 25.2359L265.711 23.4721ZM265.405 72.23L263.656 74.0153L267.199 70.4879L265.405 72.23ZM194.629 97.765L218.201 74.2981L214.658 70.7704L191.086 94.2374L194.629 97.765ZM218.201 117.704L194.629 94.2374L191.086 97.765L214.658 121.232L218.201 117.704ZM263.718 117.926C251.07 130.279 230.758 130.205 218.201 117.704L214.658 121.232C229.16 135.67 252.619 135.755 267.227 121.488L263.718 117.926ZM263.684 117.961C249.357 132.504 249.444 155.856 263.945 170.292L267.488 166.764C254.933 154.265 254.858 134.046 267.261 121.454L263.684 117.961ZM263.945 170.292L287.517 193.759L291.06 190.231L267.488 166.764L263.945 170.292ZM291.06 193.759L314.632 170.292L311.089 166.764L287.517 190.231L291.06 193.759ZM314.632 170.292C329.114 155.874 329.22 132.565 314.949 118.017L311.364 121.503C323.719 134.098 323.628 154.281 311.089 166.764L314.632 170.292ZM360.37 117.701C347.832 130.184 327.559 130.275 314.907 117.975L311.406 121.545C326.019 135.751 349.432 135.646 363.914 121.229L360.37 117.701ZM383.942 94.2339L360.37 117.701L363.914 121.229L387.486 97.7616L383.942 94.2339ZM360.37 74.2946L383.942 97.7616L387.486 94.2339L363.914 70.7669L360.37 74.2946ZM314.886 74.0411C327.536 61.7201 347.824 61.8045 360.37 74.2946L363.914 70.7669C349.424 56.3415 325.992 56.2442 311.381 70.4751L314.886 74.0411ZM311.083 25.2359C323.628 37.7246 323.714 57.9198 311.342 70.514L314.925 74.0022C329.214 59.4558 329.115 36.1321 314.627 21.7083L311.083 25.2359ZM287.511 1.76894L311.083 25.2359L314.627 21.7083L291.055 -1.7587L287.511 1.76894ZM267.483 25.2359L291.055 1.76894L287.511 -1.7587L263.94 21.7083L267.483 25.2359ZM267.199 70.4879C254.852 57.892 254.947 37.716 267.483 25.2359L263.94 21.7083C249.461 36.1221 249.352 59.4237 263.612 73.9721L267.199 70.4879ZM218.201 74.2981C230.737 61.8179 251.003 61.7237 263.656 74.0153L267.155 70.4448C252.542 56.2478 229.136 56.3564 214.658 70.7704L218.201 74.2981Z" fill="#AB87FF" mask="url(#path-45-inside-23_45_2659)"/>
<mask id="path-47-inside-24_45_2659" fill="white">
<path fill-rule="evenodd" clip-rule="evenodd" d="M239.702 95.7039L239.404 96.0007L239.702 96.2975C253.24 109.775 275.145 109.846 288.772 96.5111C275.379 110.077 275.451 131.883 288.988 145.359L289.287 145.656L289.585 145.359C303.117 131.887 303.194 110.092 289.816 96.5253C303.443 109.844 325.336 109.768 338.868 96.2956L339.167 95.9988L338.868 95.702C325.33 82.2241 303.425 82.1531 289.798 95.4892C303.192 81.9234 303.12 60.1172 289.582 46.6401L289.284 46.3433L288.986 46.6401C275.453 60.1126 275.377 81.9085 288.756 95.4753C275.129 82.1551 253.235 82.2313 239.702 95.7039Z"/>
</mask>
<path d="M239.404 96.0007L237.633 94.2369L235.861 96.0007L237.633 97.7646L239.404 96.0007ZM288.772 96.5111L290.559 98.2596L287.015 94.7322L288.772 96.5111ZM288.988 145.359L290.76 143.596L288.988 145.359ZM289.287 145.656L287.515 147.42L289.287 149.184L291.058 147.42L289.287 145.656ZM289.585 145.359L291.356 147.123L289.585 145.359ZM289.816 96.5253L291.571 94.7453L288.028 98.2728L289.816 96.5253ZM339.167 95.9988L340.938 97.7627L342.71 95.9988L340.938 94.235L339.167 95.9988ZM289.798 95.4892L288.012 93.7407L291.555 97.268L289.798 95.4892ZM289.582 46.6401L287.811 48.4039L289.582 46.6401ZM289.284 46.3433L291.056 44.5794L289.284 42.8156L287.512 44.5794L289.284 46.3433ZM288.986 46.6401L287.214 44.8763L288.986 46.6401ZM288.756 95.4753L287.001 97.2552L290.544 93.7277L288.756 95.4753ZM241.176 97.7646L241.474 97.4677L237.931 93.9401L237.633 94.2369L241.176 97.7646ZM241.474 94.5337L241.176 94.2369L237.633 97.7646L237.931 98.0614L241.474 94.5337ZM287.015 94.7322C274.369 107.108 254.039 107.042 241.474 94.5337L237.931 98.0614C252.442 112.508 275.922 112.584 290.528 98.29L287.015 94.7322ZM286.985 94.7626C272.629 109.304 272.706 132.677 287.217 147.123L290.76 143.596C278.196 131.088 278.129 110.85 290.559 98.2596L286.985 94.7626ZM287.217 147.123L287.515 147.42L291.058 143.892L290.76 143.596L287.217 147.123ZM291.058 147.42L291.356 147.123L287.813 143.596L287.515 143.892L291.058 147.42ZM291.356 147.123C305.862 132.682 305.944 109.32 291.604 94.7778L288.028 98.2728C300.444 110.864 300.372 131.092 287.813 143.596L291.356 147.123ZM337.097 94.5318C324.537 107.035 304.218 107.107 291.571 94.7453L288.06 98.3053C302.668 112.582 326.135 112.5 340.64 98.0595L337.097 94.5318ZM337.395 94.235L337.097 94.5318L340.64 98.0595L340.938 97.7627L337.395 94.235ZM337.097 97.4658L337.395 97.7627L340.938 94.235L340.64 93.9382L337.097 97.4658ZM291.555 97.268C304.201 84.8911 324.532 84.957 337.097 97.4658L340.64 93.9382C326.128 79.4912 302.648 79.4152 288.042 93.7104L291.555 97.268ZM287.811 48.4039C300.375 60.912 300.442 81.1505 288.012 93.7407L291.585 97.2378C305.942 82.6963 305.865 59.3224 291.354 44.8763L287.811 48.4039ZM287.512 48.1071L287.811 48.4039L291.354 44.8763L291.056 44.5794L287.512 48.1071ZM290.758 48.4039L291.056 48.1071L287.512 44.5794L287.214 44.8763L290.758 48.4039ZM290.544 93.7277C278.127 81.1367 278.198 60.9077 290.758 48.4039L287.214 44.8763C272.709 59.3175 272.626 82.6803 286.968 97.2228L290.544 93.7277ZM241.474 97.4677C254.034 84.9638 274.353 84.893 287.001 97.2552L290.512 93.6954C275.904 79.4171 252.437 79.4988 237.931 93.9401L241.474 97.4677Z" fill="#AB87FF" mask="url(#path-47-inside-24_45_2659)"/>
<mask id="path-49-inside-25_45_2659" fill="white">
<path fill-rule="evenodd" clip-rule="evenodd" d="M833.083 5.59521H777.045V61.2288C777.045 80.2977 792.394 95.7815 811.411 95.9991C792.399 96.222 777.055 111.704 777.055 130.769L777.055 186.403H833.092C852.134 186.403 867.6 171.098 867.862 152.119C868.123 171.098 883.59 186.402 902.631 186.402H958.668V130.769C958.668 111.718 943.348 96.245 924.355 95.9992C943.343 95.7481 958.658 80.2774 958.658 61.2296V5.59604H902.621C883.582 5.59604 868.117 20.8968 867.852 39.8725C867.587 20.8965 852.122 5.59521 833.083 5.59521Z"/>
</mask>
<path d="M777.045 5.59521V3.09521H774.545V5.59521H777.045ZM811.411 95.9991L811.441 98.499L811.44 93.4993L811.411 95.9991ZM777.055 130.769H774.555H777.055ZM777.055 186.403H774.555L774.555 188.903H777.055V186.403ZM867.862 152.119L870.361 152.084L865.362 152.085L867.862 152.119ZM958.668 186.402V188.902H961.168V186.402H958.668ZM924.355 95.9992L924.322 93.4994L924.323 98.499L924.355 95.9992ZM958.658 5.59604H961.158V3.09604H958.658V5.59604ZM867.852 39.8725L865.352 39.9074L870.351 39.9075L867.852 39.8725ZM777.045 8.09521H833.083V3.09521H777.045V8.09521ZM779.545 61.2288V5.59521H774.545V61.2288H779.545ZM811.44 93.4993C793.791 93.2973 779.545 78.9265 779.545 61.2288H774.545C774.545 81.6688 790.998 98.2657 811.383 98.499L811.44 93.4993ZM811.382 93.4993C791.002 93.7382 774.555 110.333 774.555 130.769H779.555C779.555 113.075 793.796 98.7058 811.441 98.499L811.382 93.4993ZM774.555 130.769L774.555 186.403H779.555L779.555 130.769H774.555ZM777.055 188.903H833.092V183.903H777.055V188.903ZM833.092 188.903C853.503 188.903 870.081 172.498 870.361 152.153L865.362 152.085C865.119 169.698 850.764 183.903 833.092 183.903V188.903ZM902.631 183.902C884.959 183.902 870.604 169.698 870.361 152.084L865.362 152.153C865.642 172.498 882.221 188.902 902.631 188.902V183.902ZM958.668 183.902H902.631V188.902H958.668V183.902ZM956.168 130.769V186.402H961.168V130.769H956.168ZM924.323 98.499C941.949 98.7272 956.168 113.088 956.168 130.769H961.168C961.168 110.348 944.746 93.7631 924.388 93.4994L924.323 98.499ZM956.158 61.2296C956.158 78.9077 941.944 93.2662 924.322 93.4994L924.388 98.499C944.742 98.2296 961.158 81.6469 961.158 61.2296H956.158ZM956.158 5.59604V61.2296H961.158V5.59604H956.158ZM902.621 8.09604H958.658V3.09604H902.621V8.09604ZM870.351 39.9075C870.598 22.2968 884.951 8.09604 902.621 8.09604V3.09604C882.213 3.09604 865.636 19.4969 865.352 39.8375L870.351 39.9075ZM833.083 8.09521C850.753 8.09521 865.106 22.2964 865.352 39.9074L870.351 39.8376C870.067 19.4965 853.491 3.09521 833.083 3.09521V8.09521Z" fill="#AB87FF" mask="url(#path-49-inside-25_45_2659)"/>
<mask id="path-51-inside-26_45_2659" fill="white">
<path fill-rule="evenodd" clip-rule="evenodd" d="M833.083 5.5957H777.045V61.2293C777.045 80.2981 792.394 95.782 811.411 95.9996C792.399 96.2224 777.055 111.704 777.055 130.77L777.055 186.403H833.092C852.134 186.403 867.6 171.098 867.862 152.119C868.123 171.098 883.59 186.403 902.631 186.403H958.668V130.769C958.668 111.718 943.348 96.2455 924.355 95.9997C943.343 95.7486 958.658 80.2779 958.658 61.2301V5.59653H902.621C883.582 5.59653 868.117 20.8973 867.852 39.873C867.587 20.8969 852.122 5.5957 833.083 5.5957Z"/>
</mask>
<path d="M777.045 5.5957V3.0957H774.545V5.5957H777.045ZM811.411 95.9996L811.441 98.4995L811.44 93.4998L811.411 95.9996ZM777.055 130.77H774.555H777.055ZM777.055 186.403H774.555L774.555 188.903H777.055V186.403ZM867.862 152.119L870.361 152.085L865.362 152.085L867.862 152.119ZM958.668 186.403V188.903H961.168V186.403H958.668ZM924.355 95.9997L924.322 93.4999L924.323 98.4995L924.355 95.9997ZM958.658 5.59653H961.158V3.09653H958.658V5.59653ZM867.852 39.873L865.352 39.9079L870.351 39.9079L867.852 39.873ZM777.045 8.0957H833.083V3.0957H777.045V8.0957ZM779.545 61.2293V5.5957H774.545V61.2293H779.545ZM811.44 93.4998C793.791 93.2978 779.545 78.927 779.545 61.2293H774.545C774.545 81.6693 790.998 98.2662 811.383 98.4995L811.44 93.4998ZM811.382 93.4998C791.002 93.7386 774.555 110.333 774.555 130.77H779.555C779.555 113.075 793.796 98.7062 811.441 98.4995L811.382 93.4998ZM774.555 130.77L774.555 186.403H779.555L779.555 130.77H774.555ZM777.055 188.903H833.092V183.903H777.055V188.903ZM833.092 188.903C853.503 188.903 870.081 172.498 870.361 152.154L865.362 152.085C865.119 169.699 850.764 183.903 833.092 183.903V188.903ZM902.631 183.903C884.959 183.903 870.604 169.699 870.361 152.085L865.362 152.154C865.642 172.498 882.221 188.903 902.631 188.903V183.903ZM958.668 183.903H902.631V188.903H958.668V183.903ZM956.168 130.769V186.403H961.168V130.769H956.168ZM924.323 98.4995C941.949 98.7277 956.168 113.088 956.168 130.769H961.168C961.168 110.348 944.746 93.7635 924.388 93.4999L924.323 98.4995ZM956.158 61.2301C956.158 78.9082 941.944 93.2667 924.322 93.4999L924.388 98.4995C944.742 98.2301 961.158 81.6474 961.158 61.2301H956.158ZM956.158 5.59653V61.2301H961.158V5.59653H956.158ZM902.621 8.09653H958.658V3.09653H902.621V8.09653ZM870.351 39.9079C870.598 22.2973 884.951 8.09653 902.621 8.09653V3.09653C882.213 3.09653 865.636 19.4973 865.352 39.838L870.351 39.9079ZM833.083 8.0957C850.753 8.0957 865.106 22.2969 865.352 39.9079L870.351 39.8381C870.067 19.497 853.491 3.0957 833.083 3.0957V8.0957Z" fill="#AB87FF" mask="url(#path-51-inside-26_45_2659)"/>
<mask id="path-53-inside-27_45_2659" fill="white">
<path fill-rule="evenodd" clip-rule="evenodd" d="M795.001 72.5342L771.429 96.0012L795.001 119.468C808.53 132.937 830.416 133.017 844.044 119.707C830.679 133.275 830.76 155.06 844.288 168.528L867.86 191.995L891.432 168.528C904.942 155.078 905.041 133.331 891.728 119.76C905.36 133.013 927.203 132.915 940.713 119.465L964.285 95.9977L940.713 72.5308C927.195 59.073 905.335 58.9822 891.705 72.2581C905.035 58.6878 904.943 36.9283 891.426 23.4721L867.854 0.00511825L844.283 23.4721C830.776 36.9191 830.674 58.6579 843.977 72.23C830.344 58.9857 808.508 59.0872 795.001 72.5342Z"/>
</mask>
<path d="M771.429 96.0012L769.657 94.2374L767.885 96.0012L769.657 97.765L771.429 96.0012ZM844.044 119.707L845.833 121.454L842.289 117.926L844.044 119.707ZM844.288 168.528L846.06 166.764L844.288 168.528ZM867.86 191.995L866.088 193.759L867.86 195.522L869.632 193.759L867.86 191.995ZM891.432 168.528L893.203 170.292L891.432 168.528ZM891.728 119.76L893.479 117.975L889.935 121.503L891.728 119.76ZM964.285 95.9977L966.057 97.7616L967.829 95.9977L966.057 94.2339L964.285 95.9977ZM891.705 72.2581L889.913 70.514L893.457 74.0411L891.705 72.2581ZM891.426 23.4721L889.655 25.2359L891.426 23.4721ZM867.854 0.00511825L869.626 -1.7587L867.854 -3.52252L866.083 -1.7587L867.854 0.00511825ZM844.283 23.4721L846.054 25.2359L844.283 23.4721ZM843.977 72.23L842.227 74.0153L845.77 70.4879L843.977 72.23ZM773.2 97.765L796.772 74.2981L793.229 70.7704L769.657 94.2374L773.2 97.765ZM796.772 117.704L773.2 94.2374L769.657 97.765L793.229 121.232L796.772 117.704ZM842.289 117.926C829.641 130.279 809.329 130.205 796.772 117.704L793.229 121.232C807.731 135.67 831.19 135.755 845.798 121.488L842.289 117.926ZM842.255 117.961C827.929 132.504 828.016 155.856 842.516 170.292L846.06 166.764C833.504 154.265 833.429 134.046 845.833 121.454L842.255 117.961ZM842.516 170.292L866.088 193.759L869.632 190.231L846.06 166.764L842.516 170.292ZM869.632 193.759L893.203 170.292L889.66 166.764L866.088 190.231L869.632 193.759ZM893.203 170.292C907.685 155.874 907.791 132.565 893.521 118.017L889.935 121.503C902.291 134.098 902.199 154.281 889.66 166.764L893.203 170.292ZM938.942 117.701C926.403 130.184 906.13 130.275 893.479 117.975L889.977 121.545C904.59 135.751 928.003 135.646 942.485 121.229L938.942 117.701ZM962.513 94.2339L938.942 117.701L942.485 121.229L966.057 97.7616L962.513 94.2339ZM938.942 74.2946L962.513 97.7616L966.057 94.2339L942.485 70.7669L938.942 74.2946ZM893.457 74.0411C906.107 61.7201 926.396 61.8045 938.942 74.2946L942.485 70.7669C927.995 56.3415 904.564 56.2442 889.953 70.4751L893.457 74.0411ZM889.655 25.2359C902.199 37.7246 902.285 57.9198 889.913 70.514L893.496 74.0022C907.786 59.4558 907.686 36.1321 893.198 21.7083L889.655 25.2359ZM866.083 1.76894L889.655 25.2359L893.198 21.7083L869.626 -1.7587L866.083 1.76894ZM846.054 25.2359L869.626 1.76894L866.083 -1.7587L842.511 21.7083L846.054 25.2359ZM845.77 70.4879C833.424 57.892 833.519 37.716 846.054 25.2359L842.511 21.7083C828.033 36.1221 827.923 59.4237 842.183 73.9721L845.77 70.4879ZM796.772 74.2981C809.308 61.8179 829.575 61.7237 842.227 74.0153L845.727 70.4448C831.113 56.2478 807.707 56.3564 793.229 70.7704L796.772 74.2981Z" fill="#AB87FF" mask="url(#path-53-inside-27_45_2659)"/>
<mask id="path-55-inside-28_45_2659" fill="white">
<path fill-rule="evenodd" clip-rule="evenodd" d="M818.274 95.7039L817.976 96.0007L818.274 96.2975C831.822 109.785 853.75 109.847 867.374 96.4809C853.951 110.045 854.013 131.873 867.56 145.36L867.858 145.657L868.157 145.36C881.689 131.888 881.766 110.092 868.387 96.5252C882.014 109.844 903.907 109.768 917.44 96.2956L917.738 95.9988L917.44 95.702C903.902 82.2241 881.996 82.1531 868.37 95.4891C881.763 81.9233 881.691 60.1172 868.154 46.6401L867.855 46.3433L867.557 46.6401C854.025 60.1126 853.948 81.9085 867.327 95.4753C853.7 82.1551 831.807 82.2313 818.274 95.7039Z"/>
</mask>
<path d="M817.976 96.0007L816.204 94.2369L814.432 96.0007L816.204 97.7646L817.976 96.0007ZM867.374 96.4809L869.158 98.2316L865.615 94.7042L867.374 96.4809ZM867.56 145.36L869.332 143.596L867.56 145.36ZM867.858 145.657L866.087 147.421L867.858 149.184L869.63 147.421L867.858 145.657ZM868.387 96.5255L870.143 94.7455L866.599 98.273L868.387 96.5255ZM917.738 95.9988L919.509 97.7627L921.281 95.9988L919.509 94.235L917.738 95.9988ZM868.37 95.4891L866.583 93.7405L870.126 97.2679L868.37 95.4891ZM868.154 46.6401L866.382 48.4039L868.154 46.6401ZM867.855 46.3433L869.627 44.5794L867.855 42.8156L866.084 44.5794L867.855 46.3433ZM867.557 46.6401L865.786 44.8763L867.557 46.6401ZM867.327 95.4753L865.572 97.2552L869.115 93.7277L867.327 95.4753ZM819.747 97.7646L820.045 97.4677L816.502 93.9401L816.204 94.2369L819.747 97.7646ZM820.045 94.5337L819.747 94.2369L816.204 97.7646L816.502 98.0614L820.045 94.5337ZM865.615 94.7042C852.971 107.109 832.619 107.052 820.045 94.5337L816.502 98.0614C831.024 112.519 854.528 112.584 869.132 98.2577L865.615 94.7042ZM865.589 94.7303C851.201 109.269 851.267 132.667 865.789 147.124L869.332 143.596C856.759 131.079 856.701 110.82 869.158 98.2316L865.589 94.7303ZM865.789 147.124L866.087 147.421L869.63 143.893L869.332 143.596L865.789 147.124ZM869.63 147.421L869.928 147.124L866.385 143.596L866.087 143.893L869.63 147.421ZM869.928 147.124C884.434 132.683 884.516 109.321 870.175 94.778L866.599 98.273C879.016 110.864 878.944 131.093 866.385 143.596L869.928 147.124ZM915.668 94.5318C903.109 107.035 882.79 107.107 870.143 94.7455L866.632 98.3055C881.24 112.582 904.706 112.5 919.211 98.0595L915.668 94.5318ZM915.966 94.235L915.668 94.5318L919.211 98.0595L919.509 97.7627L915.966 94.235ZM915.668 97.4658L915.966 97.7627L919.509 94.235L919.211 93.9382L915.668 97.4658ZM870.126 97.2679C882.773 84.8911 903.103 84.957 915.668 97.4658L919.211 93.9382C904.7 79.4912 881.22 79.4152 866.613 93.7102L870.126 97.2679ZM866.382 48.4039C878.946 60.912 879.013 81.1504 866.583 93.7405L870.157 97.2376C884.513 82.6961 884.436 59.3224 869.925 44.8763L866.382 48.4039ZM866.084 48.1071L866.382 48.4039L869.925 44.8763L869.627 44.5794L866.084 48.1071ZM869.329 48.4039L869.627 48.1071L866.084 44.5794L865.786 44.8763L869.329 48.4039ZM869.115 93.7277C856.698 81.1367 856.769 60.9077 869.329 48.4039L865.786 44.8763C851.28 59.3175 851.198 82.6803 865.54 97.2228L869.115 93.7277ZM820.045 97.4677C832.605 84.9638 852.925 84.893 865.572 97.2552L869.083 93.6954C854.475 79.4171 831.008 79.4988 816.502 93.9401L820.045 97.4677Z" fill="#AB87FF" mask="url(#path-55-inside-28_45_2659)"/>
</g>
</svg>
