<svg width="22" height="22" viewBox="0 0 22 22" fill="none" xmlns="http://www.w3.org/2000/svg">
<path d="M16.8194 8.03381C16.7872 7.33147 16.6701 6.94976 16.5717 6.69529C16.4411 6.35939 16.2833 6.11849 16.0322 5.86571C15.7795 5.61463 15.5386 5.45686 15.2027 5.32623C14.9482 5.22783 14.5665 5.11078 13.8641 5.07854C13.1041 5.04462 12.8751 5.03613 10.9496 5.03613C9.02579 5.03613 8.79676 5.04462 8.03674 5.07854C7.3344 5.11078 6.95269 5.22783 6.69822 5.32623C6.36232 5.45686 6.12142 5.61463 5.86864 5.86571C5.61756 6.11849 5.45979 6.35939 5.32916 6.69529C5.23077 6.94976 5.11371 7.33147 5.08147 8.03381C5.04754 8.79383 5.03906 9.02286 5.03906 10.9484C5.03906 12.8722 5.04754 13.1012 5.08147 13.8612C5.11371 14.5636 5.23077 14.9453 5.32916 15.1997C5.45979 15.5356 5.61756 15.7765 5.86864 16.0293C6.12142 16.2804 6.36232 16.4382 6.69822 16.5688C6.95269 16.6672 7.3344 16.7842 8.03674 16.8165C8.79676 16.8504 9.02579 16.8589 10.9496 16.8589C12.8751 16.8589 13.1041 16.8504 13.8641 16.8165C14.5665 16.7842 14.9482 16.6672 15.2027 16.5688C15.5386 16.4382 15.7795 16.2804 16.0322 16.0293C16.2833 15.7765 16.4411 15.5356 16.5717 15.1997C16.6701 14.9453 16.7872 14.5636 16.8194 13.8612C16.8533 13.1012 16.8618 12.8722 16.8618 10.9484C16.8618 9.02286 16.8533 8.79383 16.8194 8.03381ZM10.9496 14.6501C8.90534 14.6501 7.24788 12.9926 7.24788 10.9484C7.24788 8.90241 8.90534 7.24495 10.9496 7.24495C12.9955 7.24495 14.653 8.90241 14.653 10.9484C14.653 12.9926 12.9955 14.6501 10.9496 14.6501ZM14.7989 7.96425C14.3205 7.96425 13.9337 7.57746 13.9337 7.09905C13.9337 6.62064 14.3205 6.23385 14.7989 6.23385C15.2773 6.23385 15.6641 6.62064 15.6641 7.09905C15.6641 7.57746 15.2773 7.96425 14.7989 7.96425ZM10.9496 8.54445C9.62295 8.54445 8.54738 9.62002 8.54738 10.9484C8.54738 12.275 9.62295 13.3506 10.9496 13.3506C12.2779 13.3506 13.3535 12.275 13.3535 10.9484C13.3535 9.62002 12.2779 8.54445 10.9496 8.54445Z" fill="#121212"/>
<path d="M18.8428 0H3.05366C1.36736 0 0 1.36736 0 3.05366V18.8428C0 20.5291 1.36736 21.8965 3.05366 21.8965H18.8428C20.5291 21.8965 21.8964 20.5291 21.8964 18.8428V3.05366C21.8964 1.36736 20.5291 0 18.8428 0ZM18.115 13.9213C18.0794 14.6881 17.9572 15.2123 17.7791 15.6704C17.5959 16.1454 17.3482 16.5475 16.9478 16.9478C16.5475 17.3482 16.1454 17.5959 15.6704 17.7791C15.2123 17.9572 14.6881 18.0794 13.9213 18.115C13.1511 18.1506 12.9068 18.1591 10.9474 18.1591C8.98964 18.1591 8.74535 18.1506 7.97514 18.115C7.20834 18.0794 6.68413 17.9572 6.22608 17.7791C5.75106 17.5959 5.349 17.3482 4.94863 16.9478C4.54826 16.5475 4.30057 16.1454 4.11735 15.6704C3.93922 15.2123 3.81708 14.6881 3.78145 13.9213C3.74582 13.1511 3.73734 12.9068 3.73734 10.9491C3.73734 8.98964 3.74582 8.74535 3.78145 7.97515C3.81708 7.20834 3.93922 6.68413 4.11735 6.22608C4.30057 5.75106 4.54826 5.349 4.94863 4.94863C5.349 4.54826 5.75106 4.30057 6.22608 4.11735C6.68413 3.93922 7.20834 3.81708 7.97514 3.78145C8.74535 3.74582 8.98964 3.73904 10.9474 3.73904C12.9068 3.73904 13.1511 3.74582 13.9213 3.78145C14.6881 3.81708 15.2123 3.93922 15.6704 4.11735C16.1454 4.30057 16.5475 4.54826 16.9478 4.94863C17.3482 5.349 17.5959 5.75106 17.7791 6.22608C17.9572 6.68413 18.0794 7.20834 18.115 7.97515C18.1506 8.74535 18.1574 8.98964 18.1574 10.9491C18.1574 12.9068 18.1506 13.1511 18.115 13.9213Z" fill="#121212"/>
</svg>
