<svg width="23" height="22" viewBox="0 0 23 22" fill="none" xmlns="http://www.w3.org/2000/svg">
<path d="M0.453125 3.0681V18.9319C0.453125 20.6262 1.82695 22 3.52123 22H19.385C21.0793 22 22.4531 20.6262 22.4531 18.9319V3.0681C22.4531 1.37383 21.0793 0 19.385 0H3.52123C1.82525 0 0.453125 1.37383 0.453125 3.0681ZM7.65465 16.7808C6.83648 16.7723 6.01832 16.774 5.20016 16.7808C5.06891 16.7808 5.02971 16.7484 5.02971 16.6121C5.03312 13.6957 5.03312 10.7793 5.02971 7.86286C5.02971 7.74185 5.05869 7.69923 5.18652 7.69923C6.01832 7.70435 6.84841 7.70605 7.67851 7.69923C7.83702 7.69753 7.85918 7.75889 7.85918 7.89525C7.85577 9.34749 7.85748 10.8014 7.85748 12.2537C7.85748 13.694 7.85407 15.1343 7.86089 16.5746C7.86089 16.7348 7.82169 16.7842 7.65465 16.7808ZM6.44615 6.45154C5.5564 6.45154 4.81494 5.71349 4.81324 4.82374C4.80983 3.92376 5.54958 3.1823 6.44956 3.1823C7.34442 3.18401 8.08077 3.91865 8.08247 4.8101C8.08247 5.71349 7.34953 6.45154 6.44615 6.45154ZM18.4475 16.5933C18.4475 16.7433 18.4049 16.7825 18.2583 16.7808C17.4402 16.774 16.622 16.774 15.8022 16.7808C15.659 16.7825 15.6283 16.7382 15.6283 16.6018C15.6317 15.09 15.6334 13.5764 15.6283 12.0645C15.6283 11.6861 15.6027 11.3077 15.4971 10.9378C15.301 10.2594 14.8153 9.91338 14.1045 9.95088C13.1329 10.002 12.6284 10.4827 12.5039 11.4713C12.475 11.7065 12.4613 11.9417 12.4613 12.1804C12.463 13.6514 12.4596 15.1223 12.4647 16.5916C12.4665 16.7382 12.429 16.7825 12.279 16.7808C11.454 16.774 10.629 16.774 9.80402 16.7808C9.67277 16.7808 9.63528 16.745 9.63528 16.6121C9.63868 13.7008 9.63868 10.7878 9.63528 7.8765C9.63357 7.73162 9.6813 7.69923 9.81766 7.69923C10.6017 7.70605 11.3841 7.70605 12.1682 7.69923C12.3113 7.69753 12.3488 7.74525 12.3454 7.88161C12.3369 8.22933 12.3437 8.57705 12.3437 8.92477C12.5312 8.71341 12.688 8.49694 12.8823 8.31456C13.4789 7.75207 14.1846 7.46913 15.0079 7.47594C15.4613 7.47935 15.9078 7.51174 16.3459 7.63787C17.343 7.92764 17.9243 8.61455 18.2004 9.58952C18.4083 10.3208 18.4475 11.0724 18.4475 11.8258C18.451 13.4161 18.4441 15.0047 18.4475 16.5933Z" fill="#121212"/>
</svg>
