<svg width="60" height="60" viewBox="0 0 60 60" fill="none" xmlns="http://www.w3.org/2000/svg">
<g opacity="0.6">
<circle cx="30" cy="30" r="29.5" stroke="#686868"/>
<path d="M22.3858 37.0635C20.7511 37.0635 19.4696 36.4358 18.5411 35.1804C17.6258 33.912 17.1681 32.1989 17.1681 30.0412C17.1681 27.8704 17.6388 26.1574 18.5804 24.902C19.535 23.6466 20.81 23.0189 22.4054 23.0189C24.0008 23.0189 25.2627 23.6466 26.1911 24.902C27.1327 26.1443 27.6034 27.8574 27.6034 30.0412C27.6034 32.212 27.1458 33.9251 26.2304 35.1804C25.3281 36.4358 24.0465 37.0635 22.3858 37.0635ZM19.7573 34.1604C20.3588 35.1412 21.2415 35.6316 22.4054 35.6316C23.5692 35.6316 24.4388 35.1477 25.0142 34.1801C25.6027 33.1993 25.8969 31.8197 25.8969 30.0412C25.8969 28.2889 25.5961 26.9158 24.9946 25.922C24.4061 24.9281 23.5431 24.4312 22.4054 24.4312C21.2415 24.4312 20.3588 24.9216 19.7573 25.9024C19.1688 26.8831 18.8746 28.2627 18.8746 30.0412C18.8746 31.7935 19.1688 33.1666 19.7573 34.1604ZM34.3927 29.7274C33.8173 30.4335 33.0588 30.7866 32.1173 30.7866C31.1757 30.7866 30.4107 30.4335 29.8223 29.7274C29.2338 29.0212 28.9396 28.0797 28.9396 26.9027C28.9396 25.7258 29.2404 24.7843 29.8419 24.0781C30.4434 23.372 31.2019 23.0189 32.1173 23.0189C33.0327 23.0189 33.7846 23.372 34.3731 24.0781C34.9615 24.7712 35.2557 25.7127 35.2557 26.9027C35.2557 28.0797 34.9681 29.0212 34.3927 29.7274ZM43.0823 36.0043C42.5069 36.7104 41.7484 37.0635 40.8069 37.0635C39.8654 37.0635 39.1004 36.7104 38.5119 36.0043C37.9234 35.2981 37.6292 34.3566 37.6292 33.1797C37.6292 32.0027 37.93 31.0612 38.5315 30.3551C39.1331 29.6489 39.8915 29.2958 40.8069 29.2958C41.7223 29.2958 42.4742 29.6489 43.0627 30.3551C43.6511 31.0481 43.9454 31.9897 43.9454 33.1797C43.9454 34.3566 43.6577 35.2981 43.0823 36.0043ZM31.9211 36.7693L39.63 23.3327H40.9638L33.255 36.7693H31.9211ZM30.8619 28.8643C31.1627 29.3612 31.5811 29.6097 32.1173 29.6097C32.6534 29.6097 33.0654 29.3612 33.3531 28.8643C33.6538 28.3674 33.8042 27.7135 33.8042 26.9027C33.8042 26.1181 33.6538 25.4708 33.3531 24.9608C33.0523 24.4508 32.6404 24.1958 32.1173 24.1958C31.5811 24.1958 31.1627 24.4443 30.8619 24.9412C30.5742 25.4381 30.4304 26.092 30.4304 26.9027C30.4304 27.7004 30.5742 28.3543 30.8619 28.8643ZM39.5515 35.1412C39.8523 35.6381 40.2707 35.8866 40.8069 35.8866C41.3431 35.8866 41.755 35.6381 42.0427 35.1412C42.3434 34.6443 42.4938 33.9904 42.4938 33.1797C42.4938 32.3951 42.3434 31.7477 42.0427 31.2377C41.7419 30.7277 41.33 30.4727 40.8069 30.4727C40.2707 30.4727 39.8523 30.7212 39.5515 31.2181C39.2638 31.7151 39.12 32.3689 39.12 33.1797C39.12 33.9774 39.2638 34.6312 39.5515 35.1412Z" fill="#686868"/>
</g>
</svg>
